<svg width="148.889893" height="90.910004" viewBox="0 0 148.89 90.91" fill="none" xmlns="http://www.w3.org/2000/svg" xmlns:xlink="http://www.w3.org/1999/xlink">
	<desc>
			Created with Pixso.
	</desc>
	<defs>
		<clipPath id="clip2451_13877">
			<rect id="Frame" rx="-0.500000" width="147.889999" height="89.910004" transform="translate(0.500000 0.500000)" fill="white" fill-opacity="0"/>
		</clipPath>
	</defs>
	<rect id="Frame" rx="-0.500000" width="147.889999" height="89.910004" transform="translate(0.500000 0.500000)" fill="#FFFFFF" fill-opacity="0"/>
	<g clip-path="url(#clip2451_13877)">
		<path id="Vector" d="M148.89 88.27C148.89 89.72 147.7 90.91 146.25 90.91C144.79 90.91 143.61 89.72 143.61 88.27C143.61 86.81 144.79 85.63 146.25 85.63C147.7 85.63 148.89 86.81 148.89 88.27Z" fill="#2AD168" fill-opacity="1.000000" fill-rule="evenodd"/>
		<path id="Vector" d="M124.95 88.27C124.95 89.72 123.76 90.91 122.31 90.91C120.85 90.91 119.67 89.72 119.67 88.27C119.67 86.81 120.85 85.63 122.31 85.63C123.76 85.63 124.95 86.81 124.95 88.27Z" fill="#2AD168" fill-opacity="1.000000" fill-rule="evenodd"/>
		<path id="Vector" d="M98.38 90.91C98.9 90.91 99.41 90.75 99.85 90.46C100.29 90.17 100.63 89.76 100.83 89.28C101.03 88.79 101.09 88.26 100.99 87.74C100.88 87.23 100.63 86.76 100.26 86.38C99.89 86.01 99.42 85.76 98.91 85.66C98.39 85.55 97.86 85.61 97.37 85.81C96.89 86.01 96.47 86.35 96.18 86.78C95.89 87.22 95.74 87.73 95.74 88.26C95.74 88.96 96.01 89.63 96.51 90.13C97 90.62 97.67 90.9 98.38 90.91Z" fill="#2AD168" fill-opacity="1.000000" fill-rule="nonzero"/>
		<path id="Vector" d="M74.45 90.91C74.97 90.91 75.48 90.75 75.92 90.46C76.35 90.17 76.69 89.75 76.89 89.27C77.09 88.78 77.15 88.25 77.04 87.74C76.94 87.22 76.69 86.75 76.32 86.38C75.95 86.01 75.48 85.76 74.96 85.66C74.45 85.55 73.92 85.61 73.43 85.81C72.95 86.01 72.53 86.35 72.24 86.78C71.95 87.22 71.8 87.73 71.8 88.26C71.8 88.6 71.86 88.95 72 89.27C72.13 89.59 72.33 89.88 72.57 90.13C72.82 90.37 73.11 90.57 73.43 90.7C73.75 90.84 74.1 90.91 74.45 90.91Z" fill="#2AD168" fill-opacity="1.000000" fill-rule="nonzero"/>
		<path id="Vector" d="M53.15 88.27C53.15 89.72 51.96 90.91 50.51 90.91C49.05 90.91 47.87 89.72 47.87 88.27C47.87 86.81 49.05 85.63 50.51 85.63C51.96 85.63 53.15 86.81 53.15 88.27Z" fill="#2AD168" fill-opacity="1.000000" fill-rule="evenodd"/>
		<path id="Vector" d="M29.02 87.14C29.58 88.49 28.93 90.04 27.59 90.59C26.24 91.15 24.69 90.5 24.14 89.15C23.59 87.8 24.23 86.26 25.58 85.71C26.93 85.15 28.47 85.8 29.02 87.14Z" fill="#2AD168" fill-opacity="1.000000" fill-rule="evenodd"/>
		<path id="Vector" d="M2.64 85.66C2.12 85.65 1.61 85.81 1.17 86.1C0.73 86.39 0.39 86.8 0.19 87.29C-0.01 87.77 -0.07 88.3 0.04 88.82C0.14 89.33 0.39 89.81 0.76 90.18C1.13 90.55 1.61 90.8 2.12 90.9C2.64 91.01 3.17 90.95 3.65 90.75C4.14 90.55 4.55 90.21 4.84 89.77C5.13 89.33 5.29 88.82 5.28 88.3C5.28 87.6 5 86.93 4.51 86.43C4.01 85.94 3.34 85.66 2.64 85.66Z" fill="#2AD168" fill-opacity="1.000000" fill-rule="nonzero"/>
		<path id="Vector" d="M148.89 66.86C148.89 68.31 147.7 69.5 146.25 69.5C144.79 69.5 143.61 68.31 143.61 66.86C143.61 65.4 144.79 64.22 146.25 64.22C147.7 64.22 148.89 65.4 148.89 66.86Z" fill="#2AD168" fill-opacity="1.000000" fill-rule="evenodd"/>
		<path id="Vector" d="M124.95 66.86C124.95 68.31 123.76 69.5 122.31 69.5C120.85 69.5 119.67 68.31 119.67 66.86C119.67 65.4 120.85 64.22 122.31 64.22C123.76 64.22 124.95 65.4 124.95 66.86Z" fill="#2AD168" fill-opacity="1.000000" fill-rule="evenodd"/>
		<path id="Vector" d="M98.38 69.5C98.9 69.5 99.41 69.34 99.85 69.05C100.29 68.76 100.63 68.35 100.83 67.86C101.03 67.38 101.09 66.85 100.99 66.33C100.88 65.82 100.63 65.34 100.26 64.97C99.89 64.6 99.41 64.35 98.9 64.25C98.38 64.14 97.85 64.2 97.37 64.4C96.88 64.6 96.47 64.94 96.18 65.38C95.89 65.82 95.73 66.33 95.74 66.86C95.74 67.55 96.02 68.22 96.51 68.72C97.01 69.21 97.68 69.49 98.38 69.5Z" fill="#2AD168" fill-opacity="1.000000" fill-rule="nonzero"/>
		<path id="Vector" d="M74.45 69.5C74.97 69.5 75.48 69.34 75.92 69.05C76.35 68.76 76.69 68.34 76.89 67.86C77.09 67.37 77.15 66.84 77.04 66.32C76.94 65.81 76.69 65.34 76.32 64.97C75.94 64.6 75.47 64.35 74.96 64.24C74.44 64.14 73.91 64.2 73.42 64.4C72.94 64.6 72.53 64.94 72.24 65.38C71.95 65.82 71.79 66.33 71.8 66.86C71.8 67.2 71.86 67.55 72 67.87C72.13 68.19 72.33 68.48 72.57 68.73C72.82 68.97 73.11 69.16 73.43 69.3C73.75 69.43 74.1 69.5 74.45 69.5Z" fill="#2AD168" fill-opacity="1.000000" fill-rule="nonzero"/>
		<path id="Vector" d="M53.15 66.86C53.15 68.31 51.96 69.5 50.51 69.5C49.05 69.5 47.87 68.31 47.87 66.86C47.87 65.4 49.05 64.22 50.51 64.22C51.96 64.22 53.15 65.4 53.15 66.86Z" fill="#2AD168" fill-opacity="1.000000" fill-rule="evenodd"/>
		<path id="Vector" d="M29.03 65.74C29.58 67.09 28.94 68.63 27.59 69.19C26.24 69.74 24.7 69.1 24.14 67.75C23.59 66.4 24.23 64.86 25.58 64.3C26.93 63.75 28.47 64.39 29.03 65.74Z" fill="#2AD168" fill-opacity="1.000000" fill-rule="evenodd"/>
		<path id="Vector" d="M2.65 69.5C3.17 69.5 3.68 69.34 4.12 69.05C4.55 68.76 4.89 68.34 5.09 67.86C5.29 67.37 5.35 66.84 5.24 66.32C5.14 65.81 4.89 65.34 4.52 64.97C4.14 64.6 3.67 64.35 3.16 64.24C2.64 64.14 2.11 64.2 1.62 64.4C1.14 64.6 0.73 64.94 0.44 65.38C0.15 65.82 -0.01 66.33 0 66.86C0 67.2 0.06 67.55 0.2 67.87C0.33 68.19 0.53 68.48 0.77 68.73C1.02 68.97 1.31 69.16 1.63 69.3C1.95 69.43 2.3 69.5 2.65 69.5Z" fill="#2AD168" fill-opacity="1.000000" fill-rule="nonzero"/>
		<path id="Vector" d="M148.89 45.45C148.89 46.9 147.7 48.09 146.25 48.09C144.79 48.09 143.61 46.9 143.61 45.45C143.61 43.99 144.79 42.81 146.25 42.81C147.7 42.81 148.89 43.99 148.89 45.45Z" fill="#2AD168" fill-opacity="1.000000" fill-rule="evenodd"/>
		<path id="Vector" d="M124.95 45.45C124.95 46.9 123.76 48.09 122.31 48.09C120.85 48.09 119.67 46.9 119.67 45.45C119.67 43.99 120.85 42.81 122.31 42.81C123.76 42.81 124.95 43.99 124.95 45.45Z" fill="#2AD168" fill-opacity="1.000000" fill-rule="evenodd"/>
		<path id="Vector" d="M98.38 48.1C98.9 48.1 99.41 47.94 99.85 47.65C100.29 47.36 100.63 46.95 100.83 46.47C101.03 45.98 101.09 45.45 100.99 44.93C100.88 44.42 100.63 43.95 100.26 43.57C99.89 43.2 99.42 42.95 98.91 42.85C98.39 42.74 97.86 42.8 97.37 43C96.89 43.2 96.47 43.54 96.18 43.97C95.89 44.41 95.74 44.92 95.74 45.45C95.74 46.15 96.01 46.82 96.51 47.32C97 47.81 97.67 48.09 98.38 48.1Z" fill="#2AD168" fill-opacity="1.000000" fill-rule="nonzero"/>
		<path id="Vector" d="M74.45 48.1C74.97 48.1 75.48 47.94 75.92 47.65C76.35 47.36 76.69 46.94 76.89 46.46C77.09 45.97 77.15 45.44 77.04 44.93C76.94 44.41 76.69 43.94 76.32 43.57C75.95 43.2 75.48 42.95 74.96 42.85C74.45 42.74 73.92 42.8 73.43 43C72.95 43.2 72.53 43.54 72.24 43.97C71.95 44.41 71.8 44.92 71.8 45.45C71.8 45.79 71.86 46.14 72 46.46C72.13 46.78 72.33 47.07 72.57 47.32C72.82 47.56 73.11 47.76 73.43 47.89C73.75 48.03 74.1 48.1 74.45 48.1Z" fill="#2AD168" fill-opacity="1.000000" fill-rule="nonzero"/>
		<path id="Vector" d="M53.15 45.45C53.15 46.9 51.96 48.09 50.51 48.09C49.05 48.09 47.87 46.9 47.87 45.45C47.87 43.99 49.05 42.81 50.51 42.81C51.96 42.81 53.15 43.99 53.15 45.45Z" fill="#2AD168" fill-opacity="1.000000" fill-rule="evenodd"/>
		<path id="Vector" d="M29.02 44.34C29.58 45.69 28.93 47.23 27.59 47.79C26.24 48.34 24.7 47.7 24.14 46.35C23.59 45 24.23 43.46 25.58 42.9C26.93 42.35 28.47 42.99 29.02 44.34Z" fill="#2AD168" fill-opacity="1.000000" fill-rule="evenodd"/>
		<path id="Vector" d="M2.65 48.1C3.17 48.1 3.68 47.94 4.12 47.65C4.55 47.36 4.89 46.94 5.09 46.46C5.29 45.97 5.35 45.44 5.24 44.93C5.14 44.41 4.89 43.94 4.52 43.57C4.15 43.2 3.68 42.95 3.16 42.85C2.65 42.74 2.12 42.8 1.63 43C1.15 43.2 0.73 43.54 0.44 43.97C0.15 44.41 0 44.92 0 45.45C0 46.15 0.27 46.82 0.77 47.32C1.27 47.82 1.94 48.1 2.65 48.1Z" fill="#2AD168" fill-opacity="1.000000" fill-rule="nonzero"/>
		<path id="Vector" d="M148.89 24.05C148.89 25.5 147.7 26.69 146.25 26.69C144.79 26.69 143.61 25.5 143.61 24.05C143.61 22.59 144.79 21.41 146.25 21.41C147.7 21.41 148.89 22.59 148.89 24.05Z" fill="#2AD168" fill-opacity="1.000000" fill-rule="evenodd"/>
		<path id="Vector" d="M124.95 24.05C124.95 25.5 123.76 26.69 122.31 26.69C120.85 26.69 119.67 25.5 119.67 24.05C119.67 22.59 120.85 21.41 122.31 21.41C123.76 21.41 124.95 22.59 124.95 24.05Z" fill="#2AD168" fill-opacity="1.000000" fill-rule="evenodd"/>
		<path id="Vector" d="M98.38 26.66C98.9 26.66 99.41 26.5 99.85 26.21C100.29 25.92 100.63 25.51 100.83 25.02C101.03 24.54 101.09 24.01 100.99 23.49C100.88 22.98 100.63 22.5 100.26 22.13C99.89 21.76 99.41 21.51 98.9 21.41C98.38 21.3 97.85 21.36 97.37 21.56C96.88 21.76 96.47 22.1 96.18 22.54C95.89 22.98 95.73 23.49 95.74 24.02C95.74 24.71 96.02 25.38 96.51 25.88C97.01 26.37 97.68 26.65 98.38 26.66Z" fill="#2AD168" fill-opacity="1.000000" fill-rule="nonzero"/>
		<path id="Vector" d="M74.45 26.66C74.97 26.66 75.48 26.5 75.92 26.21C76.35 25.92 76.69 25.5 76.89 25.02C77.09 24.53 77.15 24 77.04 23.48C76.94 22.97 76.69 22.5 76.32 22.13C75.94 21.76 75.47 21.51 74.96 21.4C74.44 21.3 73.91 21.36 73.42 21.56C72.94 21.76 72.53 22.1 72.24 22.54C71.95 22.98 71.79 23.49 71.8 24.02C71.8 24.36 71.86 24.71 72 25.03C72.13 25.35 72.33 25.64 72.57 25.89C72.82 26.13 73.11 26.32 73.43 26.46C73.75 26.59 74.1 26.66 74.45 26.66Z" fill="#2AD168" fill-opacity="1.000000" fill-rule="nonzero"/>
		<path id="Vector" d="M53.15 24.05C53.15 25.5 51.96 26.69 50.51 26.69C49.05 26.69 47.87 25.5 47.87 24.05C47.87 22.59 49.05 21.41 50.51 21.41C51.96 21.41 53.15 22.59 53.15 24.05Z" fill="#2AD168" fill-opacity="1.000000" fill-rule="evenodd"/>
		<path id="Vector" d="M29.03 22.94C29.58 24.29 28.94 25.83 27.59 26.38C26.24 26.94 24.7 26.29 24.14 24.95C23.59 23.6 24.23 22.06 25.58 21.5C26.93 20.95 28.47 21.59 29.03 22.94Z" fill="#2AD168" fill-opacity="1.000000" fill-rule="evenodd"/>
		<path id="Vector" d="M2.65 26.66C3.17 26.66 3.68 26.5 4.12 26.21C4.55 25.92 4.89 25.5 5.09 25.02C5.29 24.53 5.35 24 5.24 23.48C5.14 22.97 4.89 22.5 4.52 22.13C4.14 21.76 3.67 21.51 3.16 21.4C2.64 21.3 2.11 21.36 1.62 21.56C1.14 21.76 0.73 22.1 0.44 22.54C0.15 22.98 -0.01 23.49 0 24.02C0 24.36 0.06 24.71 0.2 25.03C0.33 25.35 0.53 25.64 0.77 25.89C1.02 26.13 1.31 26.32 1.63 26.46C1.95 26.59 2.3 26.66 2.65 26.66Z" fill="#2AD168" fill-opacity="1.000000" fill-rule="nonzero"/>
		<path id="Vector" d="M148.89 2.64C148.89 4.09 147.7 5.28 146.25 5.28C144.79 5.28 143.61 4.09 143.61 2.64C143.61 1.18 144.79 0 146.25 0C147.7 0 148.89 1.18 148.89 2.64Z" fill="#2AD168" fill-opacity="1.000000" fill-rule="evenodd"/>
		<path id="Vector" d="M124.95 2.64C124.95 4.09 123.76 5.28 122.31 5.28C120.85 5.28 119.67 4.09 119.67 2.64C119.67 1.18 120.85 0 122.31 0C123.76 0 124.95 1.18 124.95 2.64Z" fill="#2AD168" fill-opacity="1.000000" fill-rule="evenodd"/>
		<path id="Vector" d="M98.38 5.29C98.9 5.29 99.41 5.13 99.85 4.84C100.29 4.55 100.63 4.14 100.83 3.66C101.03 3.17 101.09 2.64 100.99 2.12C100.88 1.61 100.63 1.14 100.26 0.76C99.89 0.39 99.42 0.14 98.91 0.04C98.39 -0.07 97.86 -0.01 97.37 0.19C96.89 0.39 96.47 0.73 96.18 1.16C95.89 1.6 95.74 2.11 95.74 2.64C95.74 3.34 96.01 4.01 96.51 4.51C97 5 97.67 5.28 98.38 5.29Z" fill="#2AD168" fill-opacity="1.000000" fill-rule="nonzero"/>
		<path id="Vector" d="M74.45 5.29C74.97 5.29 75.48 5.13 75.92 4.84C76.35 4.55 76.69 4.13 76.89 3.65C77.09 3.16 77.15 2.63 77.04 2.12C76.94 1.6 76.69 1.13 76.32 0.76C75.95 0.39 75.48 0.14 74.96 0.04C74.45 -0.07 73.92 -0.01 73.43 0.19C72.95 0.39 72.53 0.73 72.24 1.16C71.95 1.6 71.8 2.11 71.8 2.63C71.8 2.98 71.86 3.33 72 3.65C72.13 3.97 72.33 4.26 72.57 4.51C72.82 4.75 73.11 4.95 73.43 5.08C73.75 5.22 74.1 5.29 74.45 5.29Z" fill="#2AD168" fill-opacity="1.000000" fill-rule="nonzero"/>
		<path id="Vector" d="M53.15 2.64C53.15 4.09 51.96 5.28 50.51 5.28C49.05 5.28 47.87 4.09 47.87 2.64C47.87 1.18 49.05 0 50.51 0C51.96 0 53.15 1.18 53.15 2.64Z" fill="#2AD168" fill-opacity="1.000000" fill-rule="evenodd"/>
		<path id="Vector" d="M29.02 1.53C29.58 2.88 28.94 4.42 27.59 4.97C26.24 5.53 24.7 4.88 24.14 3.53C23.59 2.19 24.23 0.64 25.58 0.09C26.93 -0.47 28.47 0.18 29.02 1.53Z" fill="#2AD168" fill-opacity="1.000000" fill-rule="evenodd"/>
		<path id="Vector" d="M2.65 5.29C3.17 5.29 3.68 5.13 4.12 4.84C4.55 4.55 4.89 4.13 5.09 3.65C5.29 3.16 5.35 2.63 5.24 2.12C5.14 1.6 4.89 1.13 4.52 0.76C4.15 0.39 3.68 0.14 3.16 0.04C2.65 -0.07 2.12 -0.01 1.63 0.19C1.15 0.39 0.73 0.73 0.44 1.16C0.15 1.6 0 2.11 0 2.63C0 3.34 0.27 4.01 0.77 4.51C1.27 5.01 1.94 5.29 2.65 5.29Z" fill="#2AD168" fill-opacity="1.000000" fill-rule="nonzero"/>
	</g>
</svg>
