<svg width="148.890015" height="198.910156" viewBox="0 0 148.89 198.91" fill="none" xmlns="http://www.w3.org/2000/svg" xmlns:xlink="http://www.w3.org/1999/xlink">
	<desc>
			Created with Pixso.
	</desc>
	<defs>
		<clipPath id="clip2454_16391">
			<rect id="Frame" rx="-0.500000" width="147.889999" height="89.910004" transform="translate(0.500000 108.500000)" fill="white" fill-opacity="0"/>
		</clipPath>
		<clipPath id="clip2454_16427">
			<rect id="Frame" rx="-0.500000" width="147.889999" height="89.910004" transform="translate(0.500000 0.500000)" fill="white" fill-opacity="0"/>
		</clipPath>
	</defs>
	<rect id="Frame 33" rx="-0.500000" width="147.889999" height="197.910004" transform="translate(0.500000 0.500000)" fill="#FFFFFF" fill-opacity="0"/>
	<rect id="Frame" rx="-0.500000" width="147.889999" height="89.910004" transform="translate(0.500000 108.500000)" fill="#FFFFFF" fill-opacity="0"/>
	<g clip-path="url(#clip2454_16391)">
		<path id="Vector" d="M148.88 196.27C148.88 197.72 147.7 198.91 146.24 198.91C144.79 198.91 143.6 197.72 143.6 196.27C143.6 194.81 144.79 193.63 146.24 193.63C147.7 193.63 148.88 194.81 148.88 196.27Z" fill="#3B82F6" fill-opacity="1.000000" fill-rule="evenodd"/>
		<path id="Vector" d="M124.95 196.27C124.95 197.72 123.76 198.91 122.31 198.91C120.85 198.91 119.67 197.72 119.67 196.27C119.67 194.81 120.85 193.63 122.31 193.63C123.76 193.63 124.95 194.81 124.95 196.27Z" fill="#3B82F6" fill-opacity="1.000000" fill-rule="evenodd"/>
		<path id="Vector" d="M98.38 198.91C98.9 198.91 99.41 198.75 99.85 198.46C100.29 198.17 100.63 197.76 100.83 197.28C101.03 196.79 101.09 196.26 100.99 195.75C100.89 195.23 100.63 194.76 100.26 194.39C99.89 194.01 99.42 193.76 98.91 193.66C98.39 193.55 97.86 193.61 97.37 193.81C96.89 194.01 96.47 194.35 96.18 194.78C95.89 195.22 95.74 195.73 95.74 196.26C95.74 196.96 96.01 197.63 96.51 198.13C97 198.62 97.67 198.9 98.38 198.91Z" fill="#3B82F6" fill-opacity="1.000000" fill-rule="nonzero"/>
		<path id="Vector" d="M74.44 198.91C74.97 198.91 75.48 198.75 75.92 198.46C76.35 198.17 76.69 197.75 76.89 197.27C77.09 196.79 77.15 196.25 77.04 195.74C76.94 195.22 76.69 194.75 76.32 194.38C75.95 194.01 75.48 193.76 74.96 193.66C74.45 193.55 73.91 193.61 73.43 193.81C72.95 194.01 72.53 194.35 72.24 194.78C71.95 195.22 71.79 195.73 71.79 196.26C71.79 196.6 71.86 196.95 72 197.27C72.13 197.59 72.32 197.88 72.57 198.13C72.82 198.38 73.11 198.57 73.43 198.7C73.75 198.84 74.1 198.91 74.44 198.91Z" fill="#3B82F6" fill-opacity="1.000000" fill-rule="nonzero"/>
		<path id="Vector" d="M53.15 196.27C53.15 197.72 51.96 198.91 50.51 198.91C49.05 198.91 47.87 197.72 47.87 196.27C47.87 194.81 49.05 193.63 50.51 193.63C51.96 193.63 53.15 194.81 53.15 196.27Z" fill="#3B82F6" fill-opacity="1.000000" fill-rule="evenodd"/>
		<path id="Vector" d="M29.02 195.14C29.58 196.49 28.93 198.04 27.59 198.59C26.24 199.15 24.69 198.5 24.14 197.15C23.59 195.8 24.23 194.26 25.58 193.71C26.93 193.15 28.47 193.8 29.02 195.14Z" fill="#3B82F6" fill-opacity="1.000000" fill-rule="evenodd"/>
		<path id="Vector" d="M2.65 193.66C2.12 193.65 1.61 193.81 1.17 194.1C0.73 194.39 0.39 194.8 0.19 195.29C-0.01 195.77 -0.07 196.31 0.04 196.82C0.14 197.34 0.39 197.81 0.76 198.18C1.13 198.55 1.61 198.8 2.12 198.91C2.64 199.01 3.17 198.95 3.65 198.75C4.14 198.55 4.55 198.21 4.84 197.77C5.13 197.33 5.29 196.82 5.29 196.3C5.28 195.6 5 194.93 4.51 194.43C4.01 193.94 3.34 193.66 2.65 193.66Z" fill="#3B82F6" fill-opacity="1.000000" fill-rule="nonzero"/>
		<path id="Vector" d="M148.88 174.86C148.88 176.31 147.7 177.5 146.24 177.5C144.79 177.5 143.6 176.31 143.6 174.86C143.6 173.4 144.79 172.22 146.24 172.22C147.7 172.22 148.88 173.4 148.88 174.86Z" fill="#3B82F6" fill-opacity="1.000000" fill-rule="evenodd"/>
		<path id="Vector" d="M124.95 174.86C124.95 176.31 123.76 177.5 122.31 177.5C120.85 177.5 119.67 176.31 119.67 174.86C119.67 173.4 120.85 172.22 122.31 172.22C123.76 172.22 124.95 173.4 124.95 174.86Z" fill="#3B82F6" fill-opacity="1.000000" fill-rule="evenodd"/>
		<path id="Vector" d="M98.38 177.5C98.9 177.5 99.41 177.34 99.85 177.05C100.29 176.76 100.63 176.35 100.83 175.86C101.03 175.38 101.09 174.85 100.99 174.33C100.88 173.82 100.63 173.34 100.26 172.97C99.89 172.6 99.41 172.35 98.9 172.25C98.38 172.14 97.85 172.2 97.37 172.4C96.88 172.6 96.47 172.94 96.18 173.38C95.89 173.82 95.73 174.33 95.74 174.86C95.74 175.56 96.02 176.22 96.51 176.72C97.01 177.21 97.68 177.49 98.38 177.5Z" fill="#3B82F6" fill-opacity="1.000000" fill-rule="nonzero"/>
		<path id="Vector" d="M74.44 177.5C74.97 177.5 75.48 177.34 75.92 177.05C76.35 176.76 76.69 176.34 76.89 175.86C77.09 175.37 77.15 174.84 77.04 174.33C76.94 173.81 76.69 173.34 76.32 172.97C75.94 172.6 75.47 172.35 74.96 172.25C74.44 172.14 73.91 172.2 73.42 172.4C72.94 172.6 72.53 172.94 72.24 173.38C71.95 173.82 71.79 174.33 71.79 174.86C71.79 175.2 71.86 175.55 72 175.87C72.13 176.19 72.33 176.48 72.57 176.73C72.82 176.97 73.11 177.17 73.43 177.3C73.75 177.43 74.1 177.5 74.44 177.5Z" fill="#3B82F6" fill-opacity="1.000000" fill-rule="nonzero"/>
		<path id="Vector" d="M53.15 174.86C53.15 176.31 51.96 177.5 50.51 177.5C49.05 177.5 47.87 176.31 47.87 174.86C47.87 173.4 49.05 172.22 50.51 172.22C51.96 172.22 53.15 173.4 53.15 174.86Z" fill="#3B82F6" fill-opacity="1.000000" fill-rule="evenodd"/>
		<path id="Vector" d="M29.02 173.74C29.58 175.09 28.94 176.63 27.59 177.19C26.24 177.74 24.7 177.1 24.14 175.75C23.59 174.4 24.23 172.86 25.58 172.31C26.93 171.75 28.47 172.39 29.02 173.74Z" fill="#3B82F6" fill-opacity="1.000000" fill-rule="evenodd"/>
		<path id="Vector" d="M2.65 177.5C3.17 177.5 3.68 177.34 4.12 177.05C4.55 176.76 4.89 176.34 5.09 175.86C5.29 175.37 5.35 174.84 5.24 174.33C5.14 173.81 4.89 173.34 4.52 172.97C4.14 172.6 3.67 172.35 3.16 172.25C2.64 172.14 2.11 172.2 1.62 172.4C1.14 172.6 0.73 172.94 0.44 173.38C0.15 173.82 -0.01 174.33 0 174.86C0 175.2 0.06 175.55 0.2 175.87C0.33 176.19 0.53 176.48 0.77 176.73C1.02 176.97 1.31 177.17 1.63 177.3C1.95 177.43 2.3 177.5 2.65 177.5Z" fill="#3B82F6" fill-opacity="1.000000" fill-rule="nonzero"/>
		<path id="Vector" d="M148.88 153.45C148.88 154.9 147.7 156.08 146.24 156.08C144.79 156.08 143.6 154.9 143.6 153.45C143.6 151.99 144.79 150.81 146.24 150.81C147.7 150.81 148.88 151.99 148.88 153.45Z" fill="#3B82F6" fill-opacity="1.000000" fill-rule="evenodd"/>
		<path id="Vector" d="M124.95 153.45C124.95 154.9 123.76 156.08 122.31 156.08C120.85 156.08 119.67 154.9 119.67 153.45C119.67 151.99 120.85 150.81 122.31 150.81C123.76 150.81 124.95 151.99 124.95 153.45Z" fill="#3B82F6" fill-opacity="1.000000" fill-rule="evenodd"/>
		<path id="Vector" d="M98.38 156.1C98.9 156.1 99.41 155.94 99.85 155.65C100.29 155.36 100.63 154.95 100.83 154.47C101.03 153.98 101.09 153.45 100.99 152.93C100.89 152.42 100.63 151.95 100.26 151.58C99.89 151.2 99.42 150.95 98.91 150.85C98.39 150.74 97.86 150.8 97.37 151C96.89 151.2 96.47 151.54 96.18 151.97C95.89 152.41 95.74 152.92 95.74 153.45C95.74 154.15 96.01 154.82 96.51 155.32C97 155.81 97.67 156.09 98.38 156.1Z" fill="#3B82F6" fill-opacity="1.000000" fill-rule="nonzero"/>
		<path id="Vector" d="M74.44 156.1C74.97 156.1 75.48 155.94 75.92 155.65C76.35 155.36 76.69 154.94 76.89 154.46C77.09 153.97 77.15 153.44 77.04 152.93C76.94 152.41 76.69 151.94 76.32 151.57C75.95 151.2 75.48 150.95 74.96 150.85C74.45 150.74 73.91 150.8 73.43 151C72.95 151.2 72.53 151.54 72.24 151.97C71.95 152.41 71.79 152.92 71.79 153.45C71.79 153.79 71.86 154.14 72 154.46C72.13 154.78 72.32 155.07 72.57 155.32C72.82 155.57 73.11 155.76 73.43 155.89C73.75 156.03 74.1 156.1 74.44 156.1Z" fill="#3B82F6" fill-opacity="1.000000" fill-rule="nonzero"/>
		<path id="Vector" d="M53.15 153.45C53.15 154.9 51.96 156.08 50.51 156.08C49.05 156.08 47.87 154.9 47.87 153.45C47.87 151.99 49.05 150.81 50.51 150.81C51.96 150.81 53.15 151.99 53.15 153.45Z" fill="#3B82F6" fill-opacity="1.000000" fill-rule="evenodd"/>
		<path id="Vector" d="M29.02 152.34C29.58 153.69 28.93 155.23 27.59 155.79C26.24 156.34 24.7 155.7 24.14 154.35C23.59 153 24.23 151.46 25.58 150.9C26.93 150.35 28.47 150.99 29.02 152.34Z" fill="#3B82F6" fill-opacity="1.000000" fill-rule="evenodd"/>
		<path id="Vector" d="M2.65 156.1C3.17 156.1 3.68 155.94 4.12 155.65C4.55 155.36 4.89 154.94 5.09 154.46C5.29 153.97 5.35 153.44 5.24 152.93C5.14 152.41 4.89 151.94 4.52 151.57C4.15 151.2 3.68 150.95 3.16 150.85C2.65 150.74 2.12 150.8 1.63 151C1.15 151.2 0.73 151.54 0.44 151.97C0.15 152.41 0 152.92 0 153.45C0 154.15 0.27 154.82 0.77 155.32C1.27 155.82 1.94 156.1 2.65 156.1Z" fill="#3B82F6" fill-opacity="1.000000" fill-rule="nonzero"/>
		<path id="Vector" d="M148.88 132.05C148.88 133.5 147.7 134.69 146.24 134.69C144.79 134.69 143.6 133.5 143.6 132.05C143.6 130.59 144.79 129.41 146.24 129.41C147.7 129.41 148.88 130.59 148.88 132.05Z" fill="#3B82F6" fill-opacity="1.000000" fill-rule="evenodd"/>
		<path id="Vector" d="M124.95 132.05C124.95 133.5 123.76 134.69 122.31 134.69C120.85 134.69 119.67 133.5 119.67 132.05C119.67 130.59 120.85 129.41 122.31 129.41C123.76 129.41 124.95 130.59 124.95 132.05Z" fill="#3B82F6" fill-opacity="1.000000" fill-rule="evenodd"/>
		<path id="Vector" d="M98.38 134.66C98.9 134.66 99.41 134.5 99.85 134.21C100.29 133.92 100.63 133.51 100.83 133.02C101.03 132.54 101.09 132.01 100.99 131.49C100.88 130.98 100.63 130.5 100.26 130.13C99.89 129.76 99.41 129.51 98.9 129.41C98.38 129.3 97.85 129.36 97.37 129.56C96.88 129.76 96.47 130.1 96.18 130.54C95.89 130.98 95.73 131.49 95.74 132.02C95.74 132.72 96.02 133.39 96.51 133.88C97.01 134.37 97.68 134.65 98.38 134.66Z" fill="#3B82F6" fill-opacity="1.000000" fill-rule="nonzero"/>
		<path id="Vector" d="M74.44 134.66C74.97 134.66 75.48 134.5 75.92 134.21C76.35 133.92 76.69 133.5 76.89 133.02C77.09 132.53 77.15 132 77.04 131.49C76.94 130.97 76.69 130.5 76.32 130.13C75.94 129.76 75.47 129.51 74.96 129.41C74.44 129.3 73.91 129.36 73.42 129.56C72.94 129.76 72.53 130.1 72.24 130.54C71.95 130.98 71.79 131.49 71.79 132.02C71.79 132.36 71.86 132.71 72 133.03C72.13 133.35 72.33 133.64 72.57 133.89C72.82 134.13 73.11 134.33 73.43 134.46C73.75 134.59 74.1 134.66 74.44 134.66Z" fill="#3B82F6" fill-opacity="1.000000" fill-rule="nonzero"/>
		<path id="Vector" d="M53.15 132.05C53.15 133.5 51.96 134.69 50.51 134.69C49.05 134.69 47.87 133.5 47.87 132.05C47.87 130.59 49.05 129.41 50.51 129.41C51.96 129.41 53.15 130.59 53.15 132.05Z" fill="#3B82F6" fill-opacity="1.000000" fill-rule="evenodd"/>
		<path id="Vector" d="M29.03 130.94C29.58 132.29 28.94 133.83 27.59 134.38C26.24 134.94 24.7 134.3 24.14 132.95C23.59 131.6 24.23 130.06 25.58 129.5C26.93 128.95 28.47 129.59 29.03 130.94Z" fill="#3B82F6" fill-opacity="1.000000" fill-rule="evenodd"/>
		<path id="Vector" d="M2.65 134.66C3.17 134.66 3.68 134.5 4.12 134.21C4.55 133.92 4.89 133.5 5.09 133.02C5.29 132.53 5.35 132 5.24 131.49C5.14 130.97 4.89 130.5 4.52 130.13C4.14 129.76 3.67 129.51 3.16 129.41C2.64 129.3 2.11 129.36 1.62 129.56C1.14 129.76 0.73 130.1 0.44 130.54C0.15 130.98 -0.01 131.49 0 132.02C0 132.36 0.06 132.71 0.2 133.03C0.33 133.35 0.53 133.64 0.77 133.89C1.02 134.13 1.31 134.33 1.63 134.46C1.95 134.59 2.3 134.66 2.65 134.66Z" fill="#3B82F6" fill-opacity="1.000000" fill-rule="nonzero"/>
		<path id="Vector" d="M148.88 110.64C148.88 112.09 147.7 113.28 146.24 113.28C144.79 113.28 143.6 112.09 143.6 110.64C143.6 109.18 144.79 108 146.24 108C147.7 108 148.88 109.18 148.88 110.64Z" fill="#3B82F6" fill-opacity="1.000000" fill-rule="evenodd"/>
		<path id="Vector" d="M124.95 110.64C124.95 112.09 123.76 113.28 122.31 113.28C120.85 113.28 119.67 112.09 119.67 110.64C119.67 109.18 120.85 108 122.31 108C123.76 108 124.95 109.18 124.95 110.64Z" fill="#3B82F6" fill-opacity="1.000000" fill-rule="evenodd"/>
		<path id="Vector" d="M98.38 113.29C98.9 113.29 99.41 113.13 99.85 112.84C100.29 112.55 100.63 112.14 100.83 111.66C101.03 111.17 101.09 110.64 100.99 110.12C100.89 109.61 100.63 109.14 100.26 108.77C99.89 108.39 99.42 108.14 98.91 108.04C98.39 107.93 97.86 107.99 97.37 108.19C96.89 108.39 96.47 108.73 96.18 109.16C95.89 109.6 95.74 110.11 95.74 110.64C95.74 111.34 96.01 112.01 96.51 112.51C97 113 97.67 113.28 98.38 113.29Z" fill="#3B82F6" fill-opacity="1.000000" fill-rule="nonzero"/>
		<path id="Vector" d="M74.44 113.29C74.97 113.29 75.48 113.13 75.92 112.84C76.35 112.55 76.69 112.13 76.89 111.65C77.09 111.17 77.15 110.63 77.04 110.12C76.94 109.6 76.69 109.13 76.32 108.76C75.95 108.39 75.48 108.14 74.96 108.04C74.45 107.93 73.91 107.99 73.43 108.19C72.95 108.39 72.53 108.73 72.24 109.16C71.95 109.6 71.79 110.11 71.79 110.64C71.79 110.98 71.86 111.33 72 111.65C72.13 111.97 72.32 112.26 72.57 112.51C72.82 112.76 73.11 112.95 73.43 113.08C73.75 113.22 74.1 113.29 74.44 113.29Z" fill="#3B82F6" fill-opacity="1.000000" fill-rule="nonzero"/>
		<path id="Vector" d="M53.15 110.64C53.15 112.09 51.96 113.28 50.51 113.28C49.05 113.28 47.87 112.09 47.87 110.64C47.87 109.18 49.05 108 50.51 108C51.96 108 53.15 109.18 53.15 110.64Z" fill="#3B82F6" fill-opacity="1.000000" fill-rule="evenodd"/>
		<path id="Vector" d="M29.02 109.53C29.58 110.88 28.94 112.42 27.59 112.97C26.24 113.53 24.7 112.88 24.14 111.53C23.59 110.19 24.23 108.64 25.58 108.09C26.93 107.54 28.47 108.18 29.02 109.53Z" fill="#3B82F6" fill-opacity="1.000000" fill-rule="evenodd"/>
		<path id="Vector" d="M2.65 113.29C3.17 113.29 3.68 113.13 4.12 112.84C4.55 112.55 4.89 112.13 5.09 111.65C5.29 111.17 5.35 110.63 5.24 110.12C5.14 109.6 4.89 109.13 4.52 108.76C4.15 108.39 3.68 108.14 3.16 108.04C2.65 107.93 2.12 107.99 1.63 108.19C1.15 108.39 0.73 108.73 0.44 109.16C0.15 109.6 0 110.11 0 110.64C0 111.34 0.27 112.01 0.77 112.51C1.27 113.01 1.94 113.29 2.65 113.29Z" fill="#3B82F6" fill-opacity="1.000000" fill-rule="nonzero"/>
	</g>
	<rect id="Frame" rx="-0.500000" width="147.889999" height="89.910004" transform="translate(0.500000 0.500000)" fill="#FFFFFF" fill-opacity="0"/>
	<g clip-path="url(#clip2454_16427)">
		<path id="Vector" d="M148.88 88.27C148.88 89.72 147.7 90.9 146.24 90.9C144.79 90.9 143.6 89.72 143.6 88.27C143.6 86.81 144.79 85.62 146.24 85.62C147.7 85.62 148.88 86.81 148.88 88.27Z" fill="#3B82F6" fill-opacity="1.000000" fill-rule="evenodd"/>
		<path id="Vector" d="M124.95 88.27C124.95 89.72 123.76 90.9 122.31 90.9C120.85 90.9 119.67 89.72 119.67 88.27C119.67 86.81 120.85 85.62 122.31 85.62C123.76 85.62 124.95 86.81 124.95 88.27Z" fill="#3B82F6" fill-opacity="1.000000" fill-rule="evenodd"/>
		<path id="Vector" d="M98.38 90.91C98.9 90.91 99.41 90.75 99.85 90.46C100.29 90.17 100.63 89.76 100.83 89.28C101.03 88.79 101.09 88.26 100.99 87.74C100.89 87.23 100.63 86.76 100.26 86.39C99.89 86.01 99.42 85.76 98.91 85.66C98.39 85.55 97.86 85.61 97.37 85.81C96.89 86.01 96.47 86.35 96.18 86.78C95.89 87.22 95.74 87.73 95.74 88.26C95.74 88.96 96.01 89.63 96.51 90.13C97 90.62 97.67 90.9 98.38 90.91Z" fill="#3B82F6" fill-opacity="1.000000" fill-rule="nonzero"/>
		<path id="Vector" d="M74.44 90.91C74.97 90.91 75.48 90.75 75.92 90.46C76.35 90.17 76.69 89.75 76.89 89.27C77.09 88.79 77.15 88.25 77.04 87.74C76.94 87.22 76.69 86.75 76.32 86.38C75.95 86.01 75.48 85.76 74.96 85.66C74.45 85.55 73.91 85.61 73.43 85.81C72.95 86.01 72.53 86.35 72.24 86.78C71.95 87.22 71.79 87.73 71.79 88.26C71.79 88.6 71.86 88.95 72 89.27C72.13 89.59 72.32 89.88 72.57 90.13C72.82 90.38 73.11 90.57 73.43 90.7C73.75 90.84 74.1 90.91 74.44 90.91Z" fill="#3B82F6" fill-opacity="1.000000" fill-rule="nonzero"/>
		<path id="Vector" d="M53.15 88.27C53.15 89.72 51.96 90.9 50.51 90.9C49.05 90.9 47.87 89.72 47.87 88.27C47.87 86.81 49.05 85.62 50.51 85.62C51.96 85.62 53.15 86.81 53.15 88.27Z" fill="#3B82F6" fill-opacity="1.000000" fill-rule="evenodd"/>
		<path id="Vector" d="M29.02 87.14C29.58 88.49 28.93 90.04 27.59 90.59C26.24 91.14 24.69 90.5 24.14 89.15C23.59 87.8 24.23 86.26 25.58 85.71C26.93 85.15 28.47 85.8 29.02 87.14Z" fill="#3B82F6" fill-opacity="1.000000" fill-rule="evenodd"/>
		<path id="Vector" d="M2.65 85.66C2.12 85.65 1.61 85.81 1.17 86.1C0.73 86.39 0.39 86.8 0.19 87.29C-0.01 87.77 -0.07 88.3 0.04 88.82C0.14 89.33 0.39 89.81 0.76 90.18C1.13 90.55 1.61 90.8 2.12 90.9C2.64 91.01 3.17 90.95 3.65 90.75C4.14 90.55 4.55 90.21 4.84 89.77C5.13 89.33 5.29 88.82 5.29 88.3C5.28 87.6 5 86.93 4.51 86.43C4.01 85.94 3.34 85.66 2.65 85.66Z" fill="#3B82F6" fill-opacity="1.000000" fill-rule="nonzero"/>
		<path id="Vector" d="M148.88 66.85C148.88 68.31 147.7 69.49 146.24 69.49C144.79 69.49 143.6 68.31 143.6 66.85C143.6 65.4 144.79 64.21 146.24 64.21C147.7 64.21 148.88 65.4 148.88 66.85Z" fill="#3B82F6" fill-opacity="1.000000" fill-rule="evenodd"/>
		<path id="Vector" d="M124.95 66.85C124.95 68.31 123.76 69.49 122.31 69.49C120.85 69.49 119.67 68.31 119.67 66.85C119.67 65.4 120.85 64.21 122.31 64.21C123.76 64.21 124.95 65.4 124.95 66.85Z" fill="#3B82F6" fill-opacity="1.000000" fill-rule="evenodd"/>
		<path id="Vector" d="M98.38 69.5C98.9 69.5 99.41 69.34 99.85 69.05C100.29 68.76 100.63 68.35 100.83 67.86C101.03 67.38 101.09 66.85 100.99 66.33C100.88 65.82 100.63 65.34 100.26 64.97C99.89 64.6 99.41 64.35 98.9 64.25C98.38 64.14 97.85 64.2 97.37 64.4C96.88 64.6 96.47 64.94 96.18 65.38C95.89 65.82 95.73 66.33 95.74 66.86C95.74 67.55 96.02 68.22 96.51 68.72C97.01 69.21 97.68 69.49 98.38 69.5Z" fill="#3B82F6" fill-opacity="1.000000" fill-rule="nonzero"/>
		<path id="Vector" d="M74.44 69.5C74.97 69.5 75.48 69.34 75.92 69.05C76.35 68.76 76.69 68.34 76.89 67.86C77.09 67.37 77.15 66.84 77.04 66.32C76.94 65.81 76.69 65.34 76.32 64.97C75.94 64.6 75.47 64.35 74.96 64.25C74.44 64.14 73.91 64.2 73.42 64.4C72.94 64.6 72.53 64.94 72.24 65.38C71.95 65.82 71.79 66.33 71.79 66.86C71.79 67.2 71.86 67.55 72 67.87C72.13 68.19 72.33 68.48 72.57 68.73C72.82 68.97 73.11 69.16 73.43 69.3C73.75 69.43 74.1 69.5 74.44 69.5Z" fill="#3B82F6" fill-opacity="1.000000" fill-rule="nonzero"/>
		<path id="Vector" d="M53.15 66.85C53.15 68.31 51.96 69.49 50.51 69.49C49.05 69.49 47.87 68.31 47.87 66.85C47.87 65.4 49.05 64.21 50.51 64.21C51.96 64.21 53.15 65.4 53.15 66.85Z" fill="#3B82F6" fill-opacity="1.000000" fill-rule="evenodd"/>
		<path id="Vector" d="M29.02 65.74C29.58 67.09 28.94 68.63 27.59 69.19C26.24 69.74 24.7 69.1 24.14 67.75C23.59 66.4 24.23 64.86 25.58 64.3C26.93 63.75 28.47 64.39 29.02 65.74Z" fill="#3B82F6" fill-opacity="1.000000" fill-rule="evenodd"/>
		<path id="Vector" d="M2.65 69.5C3.17 69.5 3.68 69.34 4.12 69.05C4.55 68.76 4.89 68.34 5.09 67.86C5.29 67.37 5.35 66.84 5.24 66.32C5.14 65.81 4.89 65.34 4.52 64.97C4.14 64.6 3.67 64.35 3.16 64.25C2.64 64.14 2.11 64.2 1.62 64.4C1.14 64.6 0.73 64.94 0.44 65.38C0.15 65.82 -0.01 66.33 0 66.86C0 67.2 0.06 67.55 0.2 67.87C0.33 68.19 0.53 68.48 0.77 68.73C1.02 68.97 1.31 69.16 1.63 69.3C1.95 69.43 2.3 69.5 2.65 69.5Z" fill="#3B82F6" fill-opacity="1.000000" fill-rule="nonzero"/>
		<path id="Vector" d="M148.88 45.44C148.88 46.9 147.7 48.08 146.24 48.08C144.79 48.08 143.6 46.9 143.6 45.44C143.6 43.99 144.79 42.8 146.24 42.8C147.7 42.8 148.88 43.99 148.88 45.44Z" fill="#3B82F6" fill-opacity="1.000000" fill-rule="evenodd"/>
		<path id="Vector" d="M124.95 45.44C124.95 46.9 123.76 48.08 122.31 48.08C120.85 48.08 119.67 46.9 119.67 45.44C119.67 43.99 120.85 42.8 122.31 42.8C123.76 42.8 124.95 43.99 124.95 45.44Z" fill="#3B82F6" fill-opacity="1.000000" fill-rule="evenodd"/>
		<path id="Vector" d="M98.38 48.09C98.9 48.1 99.41 47.94 99.85 47.65C100.29 47.36 100.63 46.95 100.83 46.47C101.03 45.98 101.09 45.45 100.99 44.93C100.89 44.42 100.63 43.95 100.26 43.57C99.89 43.2 99.42 42.95 98.91 42.85C98.39 42.74 97.86 42.8 97.37 43C96.89 43.2 96.47 43.54 96.18 43.97C95.89 44.41 95.74 44.92 95.74 45.44C95.74 46.15 96.01 46.82 96.51 47.32C97 47.81 97.67 48.09 98.38 48.09Z" fill="#3B82F6" fill-opacity="1.000000" fill-rule="nonzero"/>
		<path id="Vector" d="M74.44 48.09C74.97 48.09 75.48 47.94 75.92 47.65C76.35 47.36 76.69 46.94 76.89 46.46C77.09 45.97 77.15 45.44 77.04 44.93C76.94 44.41 76.69 43.94 76.32 43.57C75.95 43.2 75.48 42.95 74.96 42.85C74.45 42.74 73.91 42.8 73.43 43C72.95 43.2 72.53 43.54 72.24 43.97C71.95 44.41 71.79 44.92 71.79 45.44C71.79 45.79 71.86 46.14 72 46.46C72.13 46.78 72.32 47.07 72.57 47.32C72.82 47.56 73.11 47.76 73.43 47.89C73.75 48.03 74.1 48.09 74.44 48.09Z" fill="#3B82F6" fill-opacity="1.000000" fill-rule="nonzero"/>
		<path id="Vector" d="M53.15 45.44C53.15 46.9 51.96 48.08 50.51 48.08C49.05 48.08 47.87 46.9 47.87 45.44C47.87 43.99 49.05 42.8 50.51 42.8C51.96 42.8 53.15 43.99 53.15 45.44Z" fill="#3B82F6" fill-opacity="1.000000" fill-rule="evenodd"/>
		<path id="Vector" d="M29.02 44.34C29.58 45.69 28.93 47.23 27.59 47.79C26.24 48.34 24.7 47.7 24.14 46.35C23.59 45 24.23 43.46 25.58 42.9C26.93 42.35 28.47 42.99 29.02 44.34Z" fill="#3B82F6" fill-opacity="1.000000" fill-rule="evenodd"/>
		<path id="Vector" d="M2.65 48.09C3.17 48.09 3.68 47.94 4.12 47.65C4.55 47.36 4.89 46.94 5.09 46.46C5.29 45.97 5.35 45.44 5.24 44.93C5.14 44.41 4.89 43.94 4.52 43.57C4.15 43.2 3.68 42.95 3.16 42.85C2.65 42.74 2.12 42.8 1.63 43C1.15 43.2 0.73 43.54 0.44 43.97C0.15 44.41 0 44.92 0 45.44C0 46.15 0.27 46.82 0.77 47.32C1.27 47.82 1.94 48.09 2.65 48.09Z" fill="#3B82F6" fill-opacity="1.000000" fill-rule="nonzero"/>
		<path id="Vector" d="M148.88 24.05C148.88 25.5 147.7 26.68 146.24 26.68C144.79 26.68 143.6 25.5 143.6 24.05C143.6 22.59 144.79 21.41 146.24 21.41C147.7 21.41 148.88 22.59 148.88 24.05Z" fill="#3B82F6" fill-opacity="1.000000" fill-rule="evenodd"/>
		<path id="Vector" d="M124.95 24.05C124.95 25.5 123.76 26.68 122.31 26.68C120.85 26.68 119.67 25.5 119.67 24.05C119.67 22.59 120.85 21.41 122.31 21.41C123.76 21.41 124.95 22.59 124.95 24.05Z" fill="#3B82F6" fill-opacity="1.000000" fill-rule="evenodd"/>
		<path id="Vector" d="M98.38 26.66C98.9 26.66 99.41 26.5 99.85 26.21C100.29 25.92 100.63 25.51 100.83 25.02C101.03 24.54 101.09 24.01 100.99 23.49C100.88 22.98 100.63 22.5 100.26 22.13C99.89 21.76 99.41 21.51 98.9 21.41C98.38 21.3 97.85 21.36 97.37 21.56C96.88 21.76 96.47 22.1 96.18 22.54C95.89 22.98 95.73 23.49 95.74 24.02C95.74 24.71 96.02 25.38 96.51 25.88C97.01 26.37 97.68 26.65 98.38 26.66Z" fill="#3B82F6" fill-opacity="1.000000" fill-rule="nonzero"/>
		<path id="Vector" d="M74.44 26.66C74.97 26.66 75.48 26.5 75.92 26.21C76.35 25.92 76.69 25.5 76.89 25.02C77.09 24.53 77.15 24 77.04 23.48C76.94 22.97 76.69 22.5 76.32 22.13C75.94 21.76 75.47 21.51 74.96 21.41C74.44 21.3 73.91 21.36 73.42 21.56C72.94 21.76 72.53 22.1 72.24 22.54C71.95 22.98 71.79 23.49 71.79 24.02C71.79 24.36 71.86 24.71 72 25.03C72.13 25.35 72.33 25.64 72.57 25.89C72.82 26.13 73.11 26.33 73.43 26.46C73.75 26.59 74.1 26.66 74.44 26.66Z" fill="#3B82F6" fill-opacity="1.000000" fill-rule="nonzero"/>
		<path id="Vector" d="M53.15 24.05C53.15 25.5 51.96 26.68 50.51 26.68C49.05 26.68 47.87 25.5 47.87 24.05C47.87 22.59 49.05 21.41 50.51 21.41C51.96 21.41 53.15 22.59 53.15 24.05Z" fill="#3B82F6" fill-opacity="1.000000" fill-rule="evenodd"/>
		<path id="Vector" d="M29.03 22.94C29.58 24.29 28.94 25.83 27.59 26.38C26.24 26.94 24.7 26.29 24.14 24.95C23.59 23.6 24.23 22.06 25.58 21.5C26.93 20.95 28.47 21.59 29.03 22.94Z" fill="#3B82F6" fill-opacity="1.000000" fill-rule="evenodd"/>
		<path id="Vector" d="M2.65 26.66C3.17 26.66 3.68 26.5 4.12 26.21C4.55 25.92 4.89 25.5 5.09 25.02C5.29 24.53 5.35 24 5.24 23.48C5.14 22.97 4.89 22.5 4.52 22.13C4.14 21.76 3.67 21.51 3.16 21.41C2.64 21.3 2.11 21.36 1.62 21.56C1.14 21.76 0.73 22.1 0.44 22.54C0.15 22.98 -0.01 23.49 0 24.02C0 24.36 0.06 24.71 0.2 25.03C0.33 25.35 0.53 25.64 0.77 25.89C1.02 26.13 1.31 26.33 1.63 26.46C1.95 26.59 2.3 26.66 2.65 26.66Z" fill="#3B82F6" fill-opacity="1.000000" fill-rule="nonzero"/>
		<path id="Vector" d="M148.88 2.64C148.88 4.09 147.7 5.27 146.24 5.27C144.79 5.27 143.6 4.09 143.6 2.64C143.6 1.18 144.79 0 146.24 0C147.7 0 148.88 1.18 148.88 2.64Z" fill="#3B82F6" fill-opacity="1.000000" fill-rule="evenodd"/>
		<path id="Vector" d="M124.95 2.64C124.95 4.09 123.76 5.27 122.31 5.27C120.85 5.27 119.67 4.09 119.67 2.64C119.67 1.18 120.85 0 122.31 0C123.76 0 124.95 1.18 124.95 2.64Z" fill="#3B82F6" fill-opacity="1.000000" fill-rule="evenodd"/>
		<path id="Vector" d="M98.38 5.29C98.9 5.29 99.41 5.13 99.85 4.84C100.29 4.55 100.63 4.14 100.83 3.66C101.03 3.17 101.09 2.64 100.99 2.12C100.89 1.61 100.63 1.14 100.26 0.77C99.89 0.39 99.42 0.14 98.91 0.04C98.39 -0.07 97.86 -0.01 97.37 0.19C96.89 0.39 96.47 0.73 96.18 1.16C95.89 1.6 95.74 2.11 95.74 2.64C95.74 3.34 96.01 4.01 96.51 4.51C97 5 97.67 5.28 98.38 5.29Z" fill="#3B82F6" fill-opacity="1.000000" fill-rule="nonzero"/>
		<path id="Vector" d="M74.44 5.29C74.97 5.29 75.48 5.13 75.92 4.84C76.35 4.55 76.69 4.13 76.89 3.65C77.09 3.16 77.15 2.63 77.04 2.12C76.94 1.6 76.69 1.13 76.32 0.76C75.95 0.39 75.48 0.14 74.96 0.04C74.45 -0.07 73.91 -0.01 73.43 0.19C72.95 0.39 72.53 0.73 72.24 1.16C71.95 1.6 71.79 2.11 71.79 2.64C71.79 2.98 71.86 3.33 72 3.65C72.13 3.97 72.32 4.26 72.57 4.51C72.82 4.76 73.11 4.95 73.43 5.08C73.75 5.22 74.1 5.29 74.44 5.29Z" fill="#3B82F6" fill-opacity="1.000000" fill-rule="nonzero"/>
		<path id="Vector" d="M53.15 2.64C53.15 4.09 51.96 5.27 50.51 5.27C49.05 5.27 47.87 4.09 47.87 2.64C47.87 1.18 49.05 0 50.51 0C51.96 0 53.15 1.18 53.15 2.64Z" fill="#3B82F6" fill-opacity="1.000000" fill-rule="evenodd"/>
		<path id="Vector" d="M29.02 1.53C29.58 2.87 28.94 4.42 27.59 4.97C26.24 5.53 24.7 4.88 24.14 3.53C23.59 2.19 24.23 0.64 25.58 0.09C26.93 -0.47 28.47 0.18 29.02 1.53Z" fill="#3B82F6" fill-opacity="1.000000" fill-rule="evenodd"/>
		<path id="Vector" d="M2.65 5.29C3.17 5.29 3.68 5.13 4.12 4.84C4.55 4.55 4.89 4.13 5.09 3.65C5.29 3.16 5.35 2.63 5.24 2.12C5.14 1.6 4.89 1.13 4.52 0.76C4.15 0.39 3.68 0.14 3.16 0.04C2.65 -0.07 2.12 -0.01 1.63 0.19C1.15 0.39 0.73 0.73 0.44 1.16C0.15 1.6 0 2.11 0 2.64C0 3.34 0.27 4.01 0.77 4.51C1.27 5.01 1.94 5.29 2.65 5.29Z" fill="#3B82F6" fill-opacity="1.000000" fill-rule="nonzero"/>
	</g>
</svg>
