<svg width="792.359253" height="454.122437" viewBox="0 0 792.359 454.122" fill="none" xmlns="http://www.w3.org/2000/svg" xmlns:xlink="http://www.w3.org/1999/xlink">
	<desc>
			Created with Pixso.
	</desc>
	<defs/>
	<path id="Vector" d="M0.39 107.52C0.39 107.52 65.35 95.48 82.11 53.37C98.14 13 164.17 2.14 164.17 2.14" stroke="#EF5944" stroke-opacity="1.000000" stroke-width="4.325582"/>
	<path id="Vector" d="M0.39 127.76C0.39 127.76 80.08 113.87 100.61 63.04C120.18 14.51 201.12 2.14 201.12 2.14" stroke="#EF5944" stroke-opacity="1.000000" stroke-width="4.325582"/>
	<path id="Vector" d="M0.39 148.06C0.39 148.06 94.76 132.26 119.06 72.82C142.23 15.98 238.07 2.14 238.07 2.14" stroke="#EF5944" stroke-opacity="1.000000" stroke-width="4.325582"/>
	<path id="Vector" d="M0.39 168.3C0.39 168.3 109.5 150.64 137.56 82.5C164.28 17.49 275.02 2.14 275.02 2.14" stroke="#EF5944" stroke-opacity="1.000000" stroke-width="4.325582"/>
	<path id="Vector" d="M0.39 188.54C0.39 188.54 124.23 169.03 156.07 92.22C186.33 19.01 311.91 2.14 311.91 2.14" stroke="#EF5944" stroke-opacity="1.000000" stroke-width="4.325582"/>
	<path id="Vector" d="M0.39 208.84C0.39 208.84 138.91 187.48 174.51 101.95C208.43 20.47 348.87 2.14 348.87 2.14" stroke="#EF5944" stroke-opacity="1.000000" stroke-width="4.325582"/>
	<path id="Vector" d="M0.39 229.08C0.39 229.08 153.65 205.81 193.02 111.68C230.48 21.99 385.82 2.14 385.82 2.14" stroke="#EF5944" stroke-opacity="1.000000" stroke-width="4.325582"/>
	<path id="Vector" d="M0.39 249.33C0.39 249.33 168.38 224.19 211.47 121.35C252.52 23.51 422.77 2.14 422.77 2.14" stroke="#EF5944" stroke-opacity="1.000000" stroke-width="4.325582"/>
	<path id="Vector" d="M0.39 269.63C0.39 269.63 183.06 242.64 229.97 131.13C274.57 24.97 459.66 2.14 459.66 2.14" stroke="#EF5944" stroke-opacity="1.000000" stroke-width="4.325582"/>
	<path id="Vector" d="M0.39 289.87C0.39 289.87 197.8 261.02 248.42 140.86C296.62 26.49 496.61 2.14 496.61 2.14" stroke="#EF5944" stroke-opacity="1.000000" stroke-width="4.325582"/>
	<path id="Vector" d="M0.39 310.17C0.39 310.17 212.53 279.41 266.92 150.59C318.66 28.01 533.56 2.14 533.56 2.14" stroke="#EF5944" stroke-opacity="1.000000" stroke-width="4.325582"/>
	<path id="Vector" d="M0.39 330.41C0.39 330.41 227.21 297.8 285.37 160.32C340.71 29.47 570.51 2.14 570.51 2.14" stroke="#EF5944" stroke-opacity="1.000000" stroke-width="4.325582"/>
	<path id="Vector" d="M0.39 350.65C0.39 350.65 241.95 316.18 303.87 169.99C362.76 30.99 607.46 2.14 607.46 2.14" stroke="#EF5944" stroke-opacity="1.000000" stroke-width="4.325582"/>
	<path id="Vector" d="M0.39 370.95C0.39 370.95 256.68 334.57 322.38 179.77C384.8 32.51 644.36 2.14 644.36 2.14" stroke="#EF5944" stroke-opacity="1.000000" stroke-width="4.325582"/>
	<path id="Vector" d="M0.39 391.19C0.39 391.19 271.36 352.96 340.82 189.44C406.85 33.97 681.31 2.14 681.31 2.14" stroke="#EF5944" stroke-opacity="1.000000" stroke-width="4.325582"/>
	<path id="Vector" d="M0.39 411.44C0.39 411.44 286.1 371.34 359.33 199.17C428.9 35.49 718.26 2.14 718.26 2.14" stroke="#EF5944" stroke-opacity="1.000000" stroke-width="4.325582"/>
	<path id="Vector" d="M0.39 431.74C0.39 431.74 300.83 389.79 377.77 208.9C450.94 37.01 755.21 2.14 755.21 2.14" stroke="#EF5944" stroke-opacity="1.000000" stroke-width="4.325582"/>
	<path id="Vector" d="M0.39 451.98C0.39 451.98 315.51 408.12 396.28 218.63C472.99 38.47 792.11 2.14 792.11 2.14" stroke="#EF5944" stroke-opacity="1.000000" stroke-width="4.325582"/>
</svg>
