<svg width="182.965942" height="48.000000" viewBox="0 0 182.966 48" fill="none" xmlns="http://www.w3.org/2000/svg" xmlns:xlink="http://www.w3.org/1999/xlink">
	<desc>
			Created with Pixso.
	</desc>
	<defs>
		<clipPath id="clip9_483">
			<rect id="Frame" rx="-0.272727" width="47.596584" height="47.454544" transform="translate(0.272727 0.272727)" fill="white" fill-opacity="0"/>
		</clipPath>
	</defs>
	<rect id="Logo" rx="-0.500000" width="181.965912" height="47.000000" transform="translate(0.500000 0.500000)" fill="#FFFFFF" fill-opacity="0"/>
	<rect id="Frame" rx="-0.272727" width="47.596584" height="47.454544" transform="translate(0.272727 0.272727)" fill="#FFFFFF" fill-opacity="0"/>
	<g clip-path="url(#clip9_483)">
		<path id="Vector" d="M26.7 47.08C31.9 46.47 36.74 44.13 40.44 40.43C44.13 36.74 46.48 31.9 47.08 26.7L38.35 26.7C37.8 29.59 36.4 32.24 34.32 34.31C32.24 36.38 29.59 37.78 26.7 38.33L26.7 47.08Z" fill="#8896AB" fill-opacity="1.000000" fill-rule="evenodd"/>
		<path id="Vector" d="M34.46 3.24L34.51 3.21C40.16 -0.04 44.73 -1 46.86 1.13C52.88 7.15 35.91 25.86 30.88 30.88C27.86 33.92 24.66 36.76 21.29 39.41L21.29 47.07C18.58 46.77 15.95 45.98 13.52 44.75L13.47 44.78C7.82 48.03 3.25 48.98 1.13 46.86C-1.79 43.95 1.62 37.23 3.24 34.46C2.01 32.03 1.22 29.4 0.91 26.7L9.66 26.7C10.04 28.73 10.85 30.66 12.03 32.35C13.21 34.05 14.74 35.47 16.52 36.53C15.51 37.26 14.48 37.96 13.41 38.61C11.86 39.6 10.24 40.54 8.57 41.38C7.27 40.22 6.1 38.92 5.09 37.49C3.33 40.89 2.74 43.38 3.67 44.31C7.69 48.29 25.76 31.69 28.73 28.72C31.89 25.56 34.85 22.2 37.59 18.67C36.69 16.36 35.22 14.33 33.31 12.75C31.4 11.17 29.13 10.1 26.69 9.64L26.69 0.89C29.4 1.2 32.03 1.99 34.46 3.22L34.46 3.24ZM42.9 10.49C44.66 7.09 45.25 4.6 44.31 3.67C43.37 2.74 40.9 3.34 37.5 5.1C39.59 6.58 41.42 8.41 42.9 10.49L42.9 10.49Z" fill="#8896AB" fill-opacity="1.000000" fill-rule="evenodd"/>
		<path id="Vector" d="M21.29 0.91C16.1 1.52 11.26 3.86 7.56 7.56C3.86 11.26 1.52 16.1 0.92 21.29L9.67 21.29C10.21 18.41 11.61 15.76 13.68 13.68C15.76 11.61 18.41 10.21 21.29 9.66L21.29 0.91Z" fill="#8896AB" fill-opacity="1.000000" fill-rule="evenodd"/>
	</g>
	<path id="Wishelp" d="M96.98 13.32C96.98 13.76 96.9 14.16 96.73 14.53C96.57 14.91 96.35 15.24 96.06 15.52C95.78 15.8 95.44 16.02 95.06 16.19C94.68 16.35 94.28 16.43 93.85 16.43C93.42 16.43 93.01 16.35 92.62 16.19C92.25 16.02 91.92 15.8 91.63 15.52C91.36 15.24 91.14 14.91 90.97 14.53Q90.93 14.46 90.9 14.38L90.9 14.38Q90.73 13.88 90.73 13.32Q90.73 12.88 90.84 12.48Q90.89 12.3 90.97 12.13C91.14 11.75 91.36 11.42 91.63 11.14C91.92 10.86 92.25 10.64 92.62 10.48C93.01 10.31 93.42 10.22 93.85 10.22C94.28 10.22 94.68 10.31 95.06 10.48C95.44 10.64 95.78 10.86 96.06 11.14C96.35 11.42 96.57 11.75 96.73 12.13C96.9 12.51 96.98 12.9 96.98 13.32ZM122.71 36.54L118.05 36.54L118.05 11.02L122.71 11.02L122.71 19.09C123.26 18.67 123.84 18.37 124.43 18.2C125.02 18.02 125.62 17.93 126.23 17.93C127.36 17.93 128.42 18.14 129.4 18.57C130.39 19 131.25 19.58 131.98 20.33C132.72 21.07 133.3 21.94 133.72 22.94Q133.88 23.31 134 23.7Q134.36 24.85 134.36 26.11L134.36 36.54L129.68 36.54L129.68 26.11L129.71 26.11C129.71 25.63 129.62 25.18 129.44 24.76C129.26 24.33 129.01 23.96 128.69 23.64C128.37 23.32 128 23.07 127.58 22.89C127.16 22.71 126.71 22.61 126.23 22.61C125.75 22.61 125.29 22.71 124.85 22.89C124.42 23.07 124.05 23.32 123.73 23.64Q123.62 23.75 123.52 23.87L123.52 23.87Q123.19 24.26 122.98 24.76C122.8 25.18 122.71 25.63 122.71 26.11L122.71 36.54ZM160.72 36.54L156.03 36.54L156.03 11.02L160.72 11.02L160.72 36.54ZM87.61 29.55C87.61 30.56 87.42 31.52 87.03 32.42Q86.69 33.22 86.19 33.9L86.19 33.9L86.19 33.9Q85.86 34.35 85.46 34.75C84.8 35.41 84.02 35.93 83.13 36.32C82.24 36.69 81.29 36.88 80.28 36.88C79.37 36.88 78.5 36.72 77.65 36.4C76.82 36.09 76.07 35.62 75.4 35.01C74.73 35.62 73.98 36.09 73.14 36.4C72.3 36.72 71.42 36.88 70.51 36.88C69.5 36.88 68.55 36.69 67.65 36.32C66.76 35.93 65.98 35.41 65.31 34.75Q65.03 34.46 64.78 34.14Q64.16 33.36 63.75 32.42Q63.6 32.08 63.5 31.73Q63.18 30.69 63.18 29.55L63.18 12.1L68.07 12.1L68.07 29.55C68.07 29.89 68.14 30.22 68.26 30.52C68.39 30.82 68.56 31.08 68.77 31.31C69 31.52 69.26 31.69 69.56 31.82C69.85 31.94 70.17 32.01 70.51 32.01C70.85 32.01 71.17 31.94 71.47 31.82C71.76 31.69 72.02 31.52 72.23 31.31C72.46 31.08 72.64 30.82 72.76 30.52C72.89 30.22 72.95 29.89 72.95 29.55L72.95 12.1L77.84 12.1L77.84 29.55C77.84 29.89 77.9 30.22 78.03 30.52C78.15 30.82 78.32 31.08 78.54 31.31C78.77 31.52 79.03 31.69 79.32 31.82C79.62 31.94 79.94 32.01 80.28 32.01C80.62 32.01 80.94 31.94 81.23 31.82C81.53 31.69 81.78 31.52 82 31.31C82.23 31.08 82.4 30.82 82.53 30.52C82.67 30.22 82.73 29.89 82.73 29.55L82.73 12.1L87.61 12.1L87.61 29.55ZM144.95 32.07C145.13 32.13 145.31 32.17 145.5 32.19C145.68 32.21 145.86 32.21 146.04 32.21C146.5 32.21 146.93 32.15 147.35 32.02C147.77 31.9 148.17 31.72 148.53 31.5C148.9 31.26 149.23 30.97 149.52 30.64C149.81 30.3 150.05 29.93 150.23 29.52L153.64 32.94C153.21 33.56 152.71 34.11 152.14 34.6C151.59 35.09 150.98 35.5 150.32 35.84C149.67 36.18 148.98 36.44 148.26 36.61C147.54 36.79 146.8 36.88 146.04 36.88C144.76 36.88 143.55 36.64 142.41 36.17C141.28 35.69 140.3 35.02 139.44 34.17C138.6 33.32 137.94 32.31 137.45 31.14C136.96 29.96 136.72 28.66 136.72 27.25C136.72 25.81 136.96 24.49 137.45 23.3C137.94 22.1 138.6 21.09 139.44 20.25C140.3 19.4 141.28 18.75 142.41 18.28C143.55 17.82 144.76 17.59 146.04 17.59C146.8 17.59 147.55 17.68 148.27 17.86Q149.27 18.11 150.17 18.56L150.18 18.56Q150.26 18.6 150.34 18.64C151 18.98 151.61 19.4 152.18 19.9C152.75 20.39 153.25 20.94 153.68 21.56L144.95 32.07ZM168.97 43.5L164.28 43.5L164.28 18.28L165.4 18.28L167.26 20.48C167.68 20.09 168.14 19.71 168.64 19.36C169.14 19.01 169.66 18.71 170.19 18.46C170.74 18.19 171.3 17.99 171.88 17.84Q172.49 17.69 173.1 17.64L173.1 17.64Q173.37 17.62 173.64 17.62Q175.26 17.62 176.71 18.12L176.72 18.12Q176.99 18.21 177.25 18.32C178.39 18.77 179.38 19.42 180.22 20.26C181.07 21.1 181.74 22.12 182.23 23.31C182.72 24.5 182.96 25.81 182.96 27.25C182.96 28.75 182.72 30.1 182.23 31.31C181.74 32.5 181.07 33.52 180.22 34.36C179.38 35.19 178.39 35.82 177.25 36.27Q177.12 36.32 176.98 36.37Q175.41 36.93 173.64 36.93C173.23 36.93 172.82 36.89 172.41 36.8C172.01 36.71 171.61 36.59 171.22 36.44C170.83 36.28 170.44 36.1 170.06 35.91C169.68 35.72 169.32 35.52 168.97 35.31L168.97 43.5ZM96.18 36.54L91.5 36.54L91.5 18.28L96.18 18.28L96.18 36.54ZM109.77 36.54L99.13 36.54L99.13 31.9L109.77 31.9C110.09 31.9 110.36 31.79 110.59 31.56C110.81 31.34 110.93 31.06 110.93 30.75C110.93 30.42 110.81 30.2 110.59 30.1C110.36 30 110.09 29.94 109.77 29.94L104.93 29.94C104.12 29.94 103.36 29.79 102.66 29.48C101.96 29.18 101.34 28.76 100.82 28.24Q100.59 28.01 100.39 27.76L100.39 27.76Q99.9 27.13 99.57 26.38C99.28 25.68 99.13 24.92 99.13 24.11C99.13 23.31 99.28 22.55 99.57 21.85Q99.93 21.03 100.48 20.37L100.49 20.37Q100.64 20.18 100.82 20.01C101.34 19.48 101.96 19.07 102.66 18.78C103.36 18.47 104.12 18.32 104.93 18.32L114.35 18.32L114.35 22.96L104.93 22.96C104.61 22.96 104.34 23.07 104.11 23.3C103.88 23.52 103.77 23.8 103.77 24.11C103.77 24.44 103.88 24.73 104.11 24.97Q104.29 25.14 104.5 25.23Q104.7 25.31 104.93 25.31L109.77 25.31C110.56 25.31 111.31 25.44 112.02 25.72C112.72 25.98 113.34 26.35 113.86 26.82Q114.05 27 114.22 27.19L114.23 27.19Q114.76 27.79 115.1 28.55C115.41 29.22 115.56 29.95 115.56 30.75C115.56 31.55 115.41 32.31 115.1 33.01C114.8 33.71 114.38 34.32 113.86 34.85C113.34 35.38 112.72 35.79 112.02 36.1C111.31 36.39 110.56 36.54 109.77 36.54ZM147.34 22.48C147.12 22.4 146.9 22.35 146.69 22.32C146.48 22.3 146.27 22.29 146.04 22.29C145.4 22.29 144.8 22.41 144.23 22.65C143.68 22.88 143.19 23.21 142.77 23.64C142.36 24.07 142.03 24.59 141.8 25.21C141.56 25.81 141.44 26.49 141.44 27.25C141.44 27.42 141.44 27.61 141.46 27.83C141.48 28.05 141.51 28.27 141.54 28.5C141.59 28.71 141.64 28.92 141.69 29.13C141.75 29.33 141.83 29.51 141.92 29.67L147.34 22.48ZM178.29 27.25C178.29 26.48 178.17 25.78 177.92 25.17C177.68 24.56 177.35 24.04 176.93 23.62C176.51 23.19 176.01 22.86 175.44 22.63C174.88 22.4 174.27 22.29 173.64 22.29C173 22.29 172.4 22.4 171.83 22.63C171.27 22.86 170.79 23.19 170.36 23.62C169.94 24.04 169.61 24.56 169.36 25.17C169.12 25.78 169 26.48 169 27.25C169 27.99 169.12 28.67 169.36 29.28C169.61 29.89 169.94 30.42 170.36 30.85C170.79 31.28 171.27 31.61 171.83 31.85C172.4 32.09 173 32.21 173.64 32.21C174.27 32.21 174.88 32.09 175.44 31.85C176.01 31.61 176.51 31.28 176.93 30.85C177.35 30.42 177.68 29.89 177.92 29.28C178.17 28.67 178.29 27.99 178.29 27.25Z" fill="#8896AB" fill-opacity="1.000000" fill-rule="evenodd"/>
</svg>
