<svg width="183.639648" height="48.000000" viewBox="0 0 183.64 48" fill="none" xmlns="http://www.w3.org/2000/svg" xmlns:xlink="http://www.w3.org/1999/xlink">
	<desc>
			Created with Pixso.
	</desc>
	<defs>
		<clipPath id="clip9_493">
			<rect id="Frame" rx="-0.124578" width="47.750843" height="47.750843" transform="translate(0.124578 0.124578)" fill="white" fill-opacity="0"/>
		</clipPath>
	</defs>
	<rect id="Logo" rx="-0.500000" width="182.639633" height="47.000000" transform="translate(0.500000 0.500000)" fill="#FFFFFF" fill-opacity="0"/>
	<path id="JIGGLE" d="M75.05 29.17C75.05 31.45 74.51 33.12 73.44 34.19Q71.84 35.8 68.49 35.8Q65.17 35.8 61.44 35.45L61.44 30.74Q64.16 30.91 67.02 30.91Q67.71 30.91 68.14 30.58Q68.21 30.52 68.28 30.46C68.6 30.13 68.77 29.7 68.77 29.17L68.77 15.9L64.23 15.9L64.23 11.01L75.05 11.01L75.05 29.17ZM78.19 35.45L90.76 35.45L90.76 30.56L87.62 30.56L87.62 15.9L90.76 15.9L90.76 11.01L78.19 11.01L78.19 15.9L81.33 15.9L81.33 30.56L78.19 30.56L78.19 35.45ZM114.84 34.93Q106.67 35.8 99.83 35.8Q96.41 35.8 94.8 34.19C93.73 33.12 93.2 31.45 93.2 29.17L93.2 18C93.2 15.55 93.75 13.78 94.84 12.69Q96.51 11.01 100.18 11.01L112.75 11.01L112.75 15.9L101.58 15.9C100.18 15.9 99.48 16.6 99.48 18L99.48 29.17C99.48 29.7 99.63 30.13 99.94 30.46C100.26 30.76 100.69 30.91 101.23 30.91Q105.24 30.91 108.56 30.74L108.56 25.68L104.02 25.68L104.02 21.49L114.84 21.49L114.84 34.93ZM124.27 35.8Q131.12 35.8 139.28 34.93L139.28 21.49L128.46 21.49L128.46 25.68L133 25.68L133 30.74C130.79 30.85 128.35 30.91 125.67 30.91Q125.01 30.91 124.56 30.6L124.55 30.6Q124.46 30.53 124.38 30.46C124.08 30.13 123.93 29.7 123.93 29.17L123.93 18Q123.93 16.95 124.45 16.42Q124.97 15.9 126.02 15.9L137.19 15.9L137.19 11.01L124.62 11.01C122.18 11.01 120.4 11.57 119.28 12.69Q117.64 14.33 117.64 18L117.64 29.17C117.64 31.45 118.18 33.12 119.25 34.19Q120.85 35.8 124.27 35.8ZM149.07 30.56L161.81 30.56L161.81 35.45L142.78 35.45L142.78 11.01L149.07 11.01L149.07 30.56ZM164.26 35.45L183.64 35.45L183.64 30.56L170.54 30.56L170.54 25.5L180.84 25.5L180.84 20.61L170.54 20.61L170.54 15.9L183.64 15.9L183.64 11.01L164.26 11.01L164.26 35.45Z" fill="#8896AB" fill-opacity="1.000000" fill-rule="evenodd"/>
	<rect id="Frame" rx="-0.124578" width="47.750843" height="47.750843" transform="translate(0.124578 0.124578)" fill="#FFFFFF" fill-opacity="0"/>
	<g clip-path="url(#clip9_493)">
		<path id="Vector" d="M2.65 8.33C3.36 8.33 4.04 8.61 4.54 9.11C5.04 9.61 5.32 10.29 5.33 11C5.35 11.7 5.63 12.36 6.13 12.84C6.63 13.33 7.3 13.6 7.99 13.6C8.69 13.6 9.36 13.33 9.85 12.84C10.35 12.36 10.64 11.7 10.66 11L10.66 2.67C10.66 1.96 10.95 1.28 11.45 0.78C11.95 0.28 12.63 0 13.34 0C14.04 0 14.72 0.29 15.21 0.79C15.71 1.29 15.99 1.96 15.99 2.67L15.99 20.16C15.98 20.52 16.05 20.87 16.18 21.2C16.31 21.53 16.5 21.84 16.75 22.09C17 22.35 17.29 22.55 17.62 22.69C17.95 22.83 18.3 22.9 18.66 22.9C19.02 22.9 19.37 22.83 19.7 22.69C20.03 22.55 20.32 22.35 20.57 22.09C20.82 21.84 21.02 21.53 21.15 21.2C21.28 20.87 21.34 20.52 21.33 20.16L21.33 11C21.33 10.29 21.61 9.61 22.11 9.11C22.62 8.61 23.29 8.33 24 8.33C24.71 8.33 25.38 8.62 25.88 9.12C26.38 9.62 26.66 10.29 26.66 11L26.66 20.16C26.66 20.87 26.94 21.54 27.44 22.04C27.94 22.54 28.62 22.83 29.33 22.83C30.03 22.83 30.71 22.54 31.21 22.04C31.71 21.54 31.99 20.87 31.99 20.16L31.99 2.67C32 1.96 32.28 1.28 32.78 0.78C33.28 0.28 33.96 0 34.67 0C35.38 0 36.05 0.28 36.55 0.78C37.05 1.29 37.33 1.96 37.33 2.67L37.33 11C37.34 11.7 37.63 12.36 38.13 12.84C38.63 13.33 39.3 13.6 39.99 13.6C40.69 13.6 41.36 13.33 41.85 12.84C42.35 12.36 42.64 11.7 42.66 11C42.66 10.29 42.95 9.61 43.45 9.11C43.95 8.61 44.63 8.33 45.34 8.33C46.04 8.33 46.72 8.61 47.22 9.11C47.72 9.62 47.99 10.29 47.99 11L47.99 37.01C47.99 37.71 47.71 38.39 47.21 38.88C46.71 39.38 46.04 39.66 45.34 39.66C44.63 39.66 43.95 39.38 43.45 38.89C42.95 38.39 42.67 37.71 42.66 37.01C42.67 36.65 42.61 36.3 42.48 35.97C42.35 35.63 42.15 35.33 41.9 35.08C41.66 34.82 41.36 34.62 41.03 34.48C40.7 34.34 40.35 34.27 39.99 34.27C39.64 34.27 39.28 34.34 38.96 34.48C38.63 34.62 38.33 34.82 38.08 35.08C37.83 35.33 37.64 35.63 37.51 35.97C37.38 36.3 37.32 36.65 37.33 37.01L37.33 45.33C37.33 45.68 37.26 46.02 37.12 46.35C36.99 46.67 36.8 46.96 36.55 47.21C36.3 47.46 36.01 47.65 35.69 47.79C35.36 47.92 35.02 47.99 34.67 47.99C33.96 47.99 33.28 47.71 32.78 47.21C32.28 46.71 32 46.04 31.99 45.33L31.99 27.82C31.99 27.11 31.71 26.43 31.21 25.93C30.71 25.43 30.04 25.15 29.33 25.15C28.62 25.15 27.94 25.43 27.44 25.93C26.94 26.43 26.66 27.11 26.66 27.82L26.66 37C26.66 37.7 26.37 38.37 25.88 38.87C25.38 39.36 24.71 39.65 24 39.65C23.3 39.65 22.62 39.37 22.12 38.87C21.62 38.38 21.34 37.7 21.33 37L21.33 27.82C21.31 27.12 21.02 26.46 20.52 25.98C20.03 25.49 19.36 25.22 18.66 25.22C17.97 25.22 17.3 25.49 16.8 25.98C16.3 26.46 16.01 27.12 16 27.82L16 45.33C15.99 46.03 15.71 46.71 15.22 47.21C14.72 47.7 14.04 47.99 13.34 47.99C12.63 47.99 11.95 47.71 11.45 47.21C10.95 46.71 10.67 46.04 10.66 45.33L10.66 37C10.67 36.64 10.61 36.29 10.48 35.96C10.35 35.63 10.16 35.32 9.91 35.07C9.66 34.81 9.36 34.61 9.03 34.47C8.7 34.33 8.35 34.26 8 34.26C7.64 34.26 7.29 34.33 6.96 34.47C6.63 34.61 6.33 34.81 6.08 35.07C5.84 35.32 5.64 35.63 5.51 35.96C5.38 36.29 5.32 36.64 5.33 37C5.32 37.71 5.04 38.38 4.54 38.88C4.04 39.38 3.36 39.66 2.65 39.66C1.95 39.65 1.28 39.37 0.78 38.87C0.28 38.38 0 37.7 0 37L0 11C0 10.29 0.28 9.62 0.77 9.12C1.27 8.62 1.95 8.33 2.65 8.33L2.65 8.33ZM10.66 18.67C10.67 18.31 10.61 17.96 10.48 17.63C10.35 17.3 10.15 16.99 9.91 16.74C9.66 16.48 9.36 16.28 9.03 16.14C8.7 16 8.35 15.93 7.99 15.93C7.64 15.93 7.28 16 6.96 16.14C6.63 16.28 6.33 16.48 6.08 16.74C5.83 16.99 5.64 17.3 5.51 17.63C5.38 17.96 5.32 18.31 5.33 18.67L5.33 29.34C5.35 30.03 5.63 30.69 6.13 31.18C6.63 31.66 7.3 31.93 7.99 31.93C8.69 31.93 9.36 31.66 9.85 31.18C10.35 30.69 10.64 30.03 10.66 29.34L10.66 18.67ZM37.32 29.34L37.32 18.67C37.31 18.31 37.37 17.96 37.5 17.63C37.63 17.3 37.82 16.99 38.07 16.74C38.32 16.48 38.62 16.28 38.95 16.14C39.28 16 39.63 15.93 39.99 15.93C40.34 15.93 40.69 16 41.02 16.14C41.35 16.28 41.65 16.48 41.9 16.74C42.15 16.99 42.34 17.3 42.47 17.63C42.6 17.96 42.66 18.31 42.65 18.67L42.65 29.34C42.63 30.03 42.34 30.69 41.85 31.18C41.35 31.66 40.68 31.93 39.99 31.93C39.29 31.93 38.62 31.66 38.12 31.18C37.63 30.69 37.34 30.03 37.32 29.34Z" fill="#8896AB" fill-opacity="1.000000" fill-rule="evenodd"/>
	</g>
</svg>
