<svg width="100.818115" height="40.789062" viewBox="0 0 100.818 40.7891" fill="none" xmlns="http://www.w3.org/2000/svg" xmlns:xlink="http://www.w3.org/1999/xlink">
	<desc>
			Created with Pixso.
	</desc>
	<defs/>
	<rect id="Logo" rx="-0.181818" width="93.818176" height="31.636364" transform="translate(6.809137 6.808771)" fill="#FFFFFF" fill-opacity="0"/>
	<path id="Flex" d="M67.77 31.71L67.77 12.34L63.29 12.34L63.29 31.71L67.77 31.71ZM60.94 16.92L60.94 13.33L48.97 13.33L48.97 31.71L53.45 31.71L53.45 24.28L59.05 24.28L59.05 20.8L53.45 20.8L53.45 16.92L60.94 16.92ZM84.78 24.17Q84.78 24.8 84.71 25.48L74.57 25.48Q74.67 26.78 75.37 27.51Q75.4 27.54 75.44 27.58C75.96 28.05 76.6 28.28 77.35 28.28Q78.29 28.28 78.91 27.84Q79.39 27.49 79.68 26.87L84.44 26.87C84.2 27.83 83.75 28.69 83.11 29.46C82.48 30.23 81.69 30.83 80.73 31.27C79.77 31.71 78.69 31.92 77.51 31.92C76.07 31.92 74.8 31.62 73.68 31.01C72.57 30.4 71.69 29.52 71.07 28.39Q70.12 26.69 70.12 24.41Q70.12 22.13 71.04 20.43C71.67 19.29 72.54 18.42 73.66 17.81Q73.67 17.81 73.68 17.8Q75.35 16.89 77.51 16.89C78.92 16.89 80.18 17.19 81.28 17.79Q82.07 18.21 82.69 18.81L82.69 18.81Q83.36 19.46 83.84 20.32C84.47 21.42 84.78 22.71 84.78 24.17ZM92.98 27.66L95.79 31.71L100.81 31.71L95.79 24.46L100.68 17.1L95.84 17.1L93.48 21.14L90.68 17.1L85.65 17.1L90.6 24.25L85.78 31.71L90.63 31.71L92.98 27.66ZM80.2 23C80.2 22.23 79.94 21.62 79.42 21.16C78.89 20.71 78.24 20.48 77.45 20.48C76.7 20.48 76.07 20.7 75.54 21.14C75.04 21.57 74.72 22.19 74.6 23L80.2 23Z" fill="#FFFFFF" fill-opacity="1.000000" fill-rule="evenodd"/>
	<path id="Vector" d="M21.25 16.57C25.63 18.11 30.35 18.03 34.69 16.35C34.73 14.59 34.26 12.83 33.44 11.24L33.01 10.39C32.88 10.43 32.71 10.51 32.63 10.6C28.68 12.49 24.21 12.75 20.05 11.24C17.13 10.21 13.95 10.47 11.2 11.85L10.34 12.27C10.39 12.4 10.47 12.58 10.56 12.66C11.07 13.78 11.5 14.98 11.8 16.22C14.81 15.37 18.16 15.45 21.25 16.57Z" fill="#22C55E" fill-opacity="1.000000" fill-rule="nonzero"/>
	<path id="Vector" d="M11.5 28.98L10.56 29.49C10.64 31.04 11.07 32.58 11.8 34L12.23 34.86C12.36 34.82 12.53 34.73 12.62 34.64C14.22 33.88 15.91 33.38 17.62 33.16C19.28 32.95 20.96 32.99 22.62 33.3L22.62 28.72C22.22 28.6 21.82 28.47 21.42 28.33C20.19 27.89 18.91 27.66 17.62 27.62C15.53 27.56 13.42 28.02 11.5 28.98Z" fill="#22C55E" fill-opacity="1.000000" fill-rule="evenodd"/>
	<path id="Vector" d="M11.07 25.54C14.72 24.04 18.8 23.91 22.54 25.24C25.97 26.44 29.62 26.66 33.06 25.89C33.01 23.95 33.27 22.06 33.96 20.17C29.45 21.51 24.6 21.38 20.09 19.79C17.51 18.84 14.68 18.84 12.1 19.7C12.15 21.55 11.8 23.44 11.16 25.28C11.16 25.28 11.12 25.41 11.07 25.54Z" fill="#22C55E" fill-opacity="1.000000" fill-rule="nonzero"/>
</svg>
