<svg width="175.636353" height="43.636353" viewBox="0 0 175.636 43.6364" fill="none" xmlns="http://www.w3.org/2000/svg" xmlns:xlink="http://www.w3.org/1999/xlink">
	<desc>
			Created with Pixso.
	</desc>
	<defs>
		<clipPath id="clip9_478">
			<rect id="Frame" rx="-0.074031" width="47.851936" height="43.488300" transform="translate(0.074031 0.074031)" fill="white" fill-opacity="0"/>
		</clipPath>
	</defs>
	<rect id="Logo" rx="-0.500000" width="174.636368" height="42.636364" transform="translate(0.500000 0.500000)" fill="#FFFFFF" fill-opacity="0"/>
	<rect id="Frame" rx="-0.074031" width="47.851936" height="43.488300" transform="translate(0.074031 0.074031)" fill="#FFFFFF" fill-opacity="0"/>
	<g clip-path="url(#clip9_478)">
		<path id="Vector" d="M39.45 2.51C39.71 2.6 39.93 2.76 40.09 2.98C40.25 3.2 40.34 3.46 40.35 3.73C40.49 5.17 40.55 6.61 40.53 8.06C40.51 8.72 40.5 9.39 40.45 10.05C40.21 9.95 39.97 9.84 39.72 9.74C39.09 9.5 38.47 9.26 37.83 9.04C37.85 8.7 37.86 8.38 37.86 8.04C37.88 6.96 37.85 5.87 37.76 4.77C36.73 4.44 35.65 4.15 34.56 3.88C33.2 3.56 31.83 3.29 30.44 3.1C29.66 3 28.91 2.91 28.19 2.84C27.46 2.76 26.7 2.72 25.92 2.68C25.31 2.67 24.74 2.65 24.12 2.65L23.22 2.67C22.95 2.67 22.65 2.68 22.32 2.68C21.54 2.71 20.79 2.77 20.05 2.84C19.31 2.9 18.58 3 17.8 3.1C16.43 3.29 15.04 3.56 13.67 3.88C12.58 4.15 11.52 4.44 10.48 4.77C10.3 7.19 10.36 9.62 10.67 12.03C10.83 13.38 11.07 14.71 11.38 16.04C11.55 16.79 11.76 17.54 11.99 18.26L12 18.32L12.01 18.38L12.03 18.44L12.06 18.5L12.07 18.56L12.09 18.62L12.1 18.67L12.16 18.84L12.16 18.85L12.18 18.91L12.28 19.19L12.29 19.25L12.38 19.48L12.4 19.53C12.85 20.85 13.38 22.14 13.98 23.4L14 23.45L14.02 23.49L14.03 23.52L14.06 23.57L14.08 23.61L14.09 23.65L14.12 23.68C14.34 24.14 14.58 24.6 14.82 25.05C14.99 25.35 15.15 25.66 15.32 25.94C15.51 26.28 15.68 26.57 15.85 26.82C16.35 27.63 16.88 28.43 17.44 29.19C18 29.96 18.57 30.7 19.21 31.43C19.44 31.71 19.71 32.01 20 32.32C20.28 32.62 20.55 32.92 20.8 33.18C21.45 33.85 22.12 34.48 22.8 35.1L23.08 35.34C22.89 35.49 22.7 35.64 22.49 35.79C21.96 36.19 21.42 36.57 20.87 36.96C17.93 34.32 15.39 31.25 13.36 27.86L13.36 27.85L13.34 27.84L13.33 27.82C13.21 27.63 13.11 27.44 13 27.28C12.83 26.95 12.63 26.63 12.47 26.32C11.99 25.43 11.54 24.52 11.12 23.56C10.69 22.6 10.32 21.66 9.98 20.72C9.51 19.39 9.11 18.03 8.77 16.65C7.77 12.42 7.48 8.05 7.89 3.72C7.9 3.45 8 3.19 8.16 2.98C8.32 2.76 8.55 2.6 8.8 2.51C10.2 2.04 11.63 1.63 13.08 1.28C14.49 0.95 15.95 0.67 17.44 0.45C18.2 0.35 19 0.26 19.84 0.19C20.65 0.11 21.45 0.05 22.23 0.02C22.52 0.02 22.83 0.01 23.17 0.01L24.13 0L25.08 0.01C25.42 0.01 25.75 0.02 26.03 0.02C26.82 0.05 27.62 0.11 28.43 0.19C29.27 0.26 30.06 0.35 30.82 0.45C32.32 0.67 33.78 0.95 35.19 1.28C36.62 1.63 38.05 2.04 39.46 2.51L39.45 2.51ZM30.82 29.19C31.35 28.44 31.88 27.67 32.37 26.88C32.53 26.58 32.81 26.36 33.13 26.25C33.46 26.14 33.81 26.16 34.12 26.31C36.68 27.53 39 29.19 40.99 31.23C41.22 31.44 41.37 31.73 41.41 32.04C41.45 32.35 41.38 32.67 41.21 32.94C40.79 33.58 40.34 34.26 39.88 34.92C39.42 35.59 38.92 36.24 38.44 36.85C38.08 37.31 37.7 37.78 37.29 38.25C36.93 38.67 36.54 39.12 36.09 39.61C35.48 40.29 34.88 40.91 34.27 41.51L34.25 41.51C33.67 42.1 33.04 42.68 32.38 43.25C32.19 43.44 31.95 43.56 31.68 43.61C31.41 43.66 31.14 43.62 30.9 43.51C28.96 42.62 27.09 41.59 25.31 40.41C25.55 40.23 25.78 40.05 26.02 39.86C26.52 39.46 27.02 39.07 27.49 38.64C28.69 39.41 29.94 40.1 31.22 40.72C31.62 40.35 32 39.98 32.4 39.6C33.02 38.99 33.59 38.41 34.12 37.82C34.47 37.45 34.84 37.01 35.26 36.54C35.61 36.11 35.98 35.67 36.33 35.2C36.82 34.61 37.26 34 37.69 33.38C37.92 33.08 38.14 32.74 38.36 32.41C37.7 31.78 36.99 31.19 36.24 30.66C35.53 30.14 34.79 29.68 34.02 29.26C33.68 29.77 33.33 30.28 32.97 30.76C32.35 31.62 31.72 32.41 31.07 33.18C30.78 33.52 30.5 33.83 30.23 34.12C30.11 34.27 29.98 34.4 29.85 34.55L29.83 34.56L29.82 34.58L29.8 34.59L29.79 34.61L29.78 34.62L29.76 34.64L29.75 34.65L29.72 34.68L29.72 34.69C28.31 36.18 26.8 37.56 25.19 38.82C22.77 40.68 20.14 42.26 17.35 43.52C17.1 43.63 16.82 43.67 16.55 43.61C16.27 43.56 16.03 43.43 15.83 43.23C15.18 42.67 14.58 42.09 13.98 41.52C13.37 40.93 12.77 40.3 12.15 39.62C11.69 39.13 11.3 38.67 10.94 38.26C10.55 37.79 10.16 37.32 9.79 36.86C9.31 36.23 8.84 35.59 8.36 34.93C7.89 34.27 7.45 33.59 7.04 32.94C6.71 32.43 6.38 31.88 6.04 31.31C5.73 30.75 5.42 30.19 5.12 29.63C4.74 28.93 4.39 28.2 4.05 27.48C3.71 26.76 3.42 26.04 3.11 25.29C2.55 23.92 2.06 22.52 1.63 21.09C1.2 19.66 0.85 18.21 0.57 16.76C0.51 16.49 0.54 16.21 0.65 15.96C0.76 15.71 0.95 15.5 1.19 15.36C2.9 14.14 4.71 13.05 6.59 12.11C6.67 12.82 6.76 13.51 6.87 14.21C6.9 14.44 6.95 14.68 6.99 14.91C5.74 15.57 4.53 16.3 3.37 17.1C3.6 18.2 3.88 19.28 4.19 20.32C4.59 21.68 5.06 23 5.58 24.28C5.86 24.97 6.15 25.66 6.47 26.35C6.8 27.05 7.12 27.72 7.48 28.37C7.76 28.92 8.05 29.44 8.35 29.96C8.64 30.45 8.96 30.97 9.29 31.51C9.7 32.16 10.11 32.79 10.54 33.38C10.97 33.97 11.43 34.6 11.9 35.2C12.27 35.67 12.62 36.11 12.99 36.54C13.39 37.01 13.77 37.45 14.11 37.82C14.65 38.41 15.23 39 15.85 39.6C16.23 39.98 16.63 40.35 17.01 40.71C19.23 39.64 21.33 38.35 23.29 36.86C26.15 34.68 28.69 32.1 30.81 29.2L30.82 29.19ZM47.04 15.35C47.28 15.49 47.46 15.7 47.58 15.95C47.69 16.2 47.72 16.48 47.67 16.75C47.38 18.21 47.03 19.65 46.6 21.08C46.17 22.51 45.69 23.91 45.14 25.28C45.08 25.42 45 25.54 44.9 25.65C44.67 25.92 44.35 26.08 43.99 26.11C43.64 26.14 43.29 26.03 43.02 25.8C42.02 24.93 40.97 24.14 39.87 23.41C38.78 22.7 37.65 22.07 36.48 21.51C36.17 21.38 35.92 21.13 35.79 20.82C35.66 20.51 35.65 20.16 35.76 19.84C36.2 18.6 36.56 17.34 36.86 16.05C36.99 15.55 37.1 15.05 37.2 14.53C37.54 14.67 37.86 14.8 38.2 14.95C38.7 15.17 39.2 15.4 39.7 15.64C39.63 15.99 39.55 16.33 39.47 16.67C39.23 17.66 38.97 18.65 38.66 19.62C39.57 20.09 40.47 20.62 41.34 21.18C42 21.62 42.67 22.09 43.3 22.58C43.56 21.84 43.82 21.09 44.04 20.33C44.36 19.28 44.62 18.2 44.88 17.1C42.94 15.78 40.88 14.65 38.73 13.72C37.41 13.15 36.05 12.65 34.66 12.24C33.4 11.85 32.12 11.54 30.82 11.31C29.91 11.15 28.96 11.01 28 10.91C27.05 10.81 26.1 10.75 25.16 10.72L24.63 10.7L23.6 10.7L23.09 10.72C22.14 10.75 21.18 10.81 20.24 10.91C19.3 11.01 18.34 11.15 17.41 11.31C16.13 11.54 14.85 11.87 13.57 12.24C13.08 12.39 12.59 12.54 12.11 12.71C12.06 12.43 12.02 12.16 11.99 11.88C11.9 11.25 11.84 10.63 11.8 10C15.77 8.68 19.93 8.01 24.12 8.02C29.3 8.03 34.43 9.04 39.22 10.99C41.99 12.15 44.61 13.61 47.05 15.36L47.04 15.35ZM22.49 27C22.27 26.72 22.08 26.47 21.91 26.25C20.5 24.33 19.31 22.27 18.36 20.09C18.22 19.8 18.09 19.51 17.97 19.21C17.86 18.91 17.77 18.67 17.67 18.39C17.63 18.29 17.6 18.19 17.58 18.08C17.55 17.91 17.55 17.73 17.59 17.56C17.63 17.39 17.7 17.22 17.8 17.08C17.9 16.94 18.03 16.81 18.18 16.72C18.33 16.63 18.5 16.56 18.67 16.54C18.95 16.48 19.28 16.43 19.61 16.38L20.57 16.25C21.16 16.19 21.75 16.15 22.35 16.1C22.96 16.05 23.57 16.05 24.12 16.05C24.67 16.05 25.27 16.07 25.9 16.1C26.51 16.14 27.1 16.19 27.67 16.25L28.63 16.38C28.98 16.43 29.29 16.47 29.59 16.54C29.66 16.55 29.74 16.57 29.81 16.59C30.14 16.71 30.41 16.96 30.57 17.28C30.72 17.6 30.74 17.97 30.62 18.3C30.5 18.61 30.38 18.92 30.27 19.22C30.15 19.51 30.03 19.81 29.9 20.1C29.42 21.18 28.88 22.24 28.29 23.27C27.7 24.3 27.04 25.3 26.33 26.26C26.11 26.55 25.92 26.8 25.76 27.01C25.51 27.32 25.32 27.57 25.15 27.75C25.1 27.81 25.04 27.87 24.97 27.92C24.84 28.04 24.68 28.12 24.52 28.17C24.35 28.23 24.17 28.24 24 28.23C23.82 28.21 23.66 28.16 23.5 28.08C23.35 28 23.21 27.88 23.1 27.75C22.88 27.5 22.69 27.26 22.49 27.01L22.49 27Z" fill="#8896AB" fill-opacity="1.000000" fill-rule="nonzero"/>
	</g>
	<path id="resecurb" d="M167.31 16.95C168.67 16.95 169.88 17.24 170.95 17.84C172.03 18.43 172.88 19.27 173.49 20.35Q173.51 20.4 173.54 20.45Q174.4 22.04 174.4 24.1C174.4 25.51 174.1 26.77 173.49 27.87C172.88 28.95 172.03 29.79 170.95 30.38C169.88 30.97 168.67 31.27 167.31 31.27C166.35 31.27 165.47 31.1 164.66 30.77C163.88 30.44 163.21 29.94 162.67 29.28L162.67 31.09L159.56 31.09L159.56 11.66L162.83 11.66L162.83 18.81C163.39 18.2 164.04 17.73 164.79 17.42C165.56 17.1 166.4 16.95 167.31 16.95ZM61.98 19.15Q62.25 18.73 62.6 18.39Q64.08 16.95 66.96 16.95L66.96 20.06C66.68 20.01 66.43 19.98 66.2 19.98Q64.65 19.98 63.65 20.73Q63.42 20.9 63.22 21.11Q63.19 21.14 63.16 21.17Q62.14 22.27 62.14 24.3L62.14 31.09L58.87 31.09L58.87 17.1L61.98 17.1L61.98 19.15ZM82.75 24.17C82.75 24.4 82.73 24.72 82.7 25.14L71.73 25.14C71.92 26.17 72.42 26.99 73.22 27.6Q73.31 27.67 73.41 27.73L73.41 27.73Q74.59 28.49 76.26 28.49Q77.71 28.49 78.84 27.89Q79.5 27.54 80.05 26.98L81.81 28.99C81.18 29.74 80.39 30.31 79.43 30.69C78.47 31.08 77.38 31.27 76.18 31.27C74.64 31.27 73.29 30.96 72.12 30.35C70.95 29.74 70.04 28.9 69.4 27.81Q69.22 27.51 69.08 27.19L69.08 27.19Q68.46 25.78 68.46 24.1Q68.46 22.37 69.11 20.95Q69.23 20.69 69.37 20.43C70 19.33 70.86 18.47 71.96 17.86Q72.21 17.73 72.46 17.62L72.46 17.62Q73.92 16.95 75.68 16.95Q77.47 16.95 78.92 17.65L78.92 17.65Q79.12 17.75 79.32 17.86Q80.07 18.27 80.66 18.85Q81.36 19.52 81.83 20.4C82.45 21.49 82.75 22.74 82.75 24.17ZM90.21 31.27C89.08 31.27 87.97 31.12 86.89 30.82C85.81 30.53 84.94 30.15 84.3 29.7L85.55 27.21C86.18 27.63 86.93 27.97 87.81 28.23C88.7 28.48 89.57 28.6 90.42 28.6Q92.72 28.6 93.22 27.65Q93.36 27.39 93.36 27.05C93.36 26.57 93.1 26.22 92.6 26.03C92.11 25.84 91.31 25.66 90.21 25.48C89.06 25.31 88.12 25.11 87.39 24.88Q87.01 24.76 86.66 24.58Q86.03 24.24 85.5 23.7Q85.46 23.66 85.43 23.62L85.43 23.62Q84.72 22.76 84.72 21.32Q84.72 20.37 85.09 19.6Q85.5 18.77 86.37 18.15Q88.04 16.95 90.87 16.95C91.83 16.95 92.79 17.06 93.75 17.29Q95.19 17.6 96.11 18.15L94.85 20.64C93.66 19.94 92.33 19.59 90.84 19.59C89.88 19.59 89.15 19.74 88.64 20.04C88.16 20.32 87.91 20.69 87.91 21.16C87.91 21.69 88.17 22.06 88.7 22.29C89.24 22.5 90.07 22.7 91.18 22.89C92.3 23.07 93.22 23.27 93.93 23.49C94.65 23.72 95.26 24.1 95.77 24.65C96.29 25.19 96.55 25.95 96.55 26.95C96.55 28.26 95.98 29.31 94.85 30.09C93.71 30.88 92.17 31.27 90.21 31.27ZM112.51 24.17C112.51 24.4 112.5 24.72 112.46 25.14L101.49 25.14C101.68 26.17 102.18 26.99 102.98 27.6C103.8 28.2 104.82 28.49 106.02 28.49C107.56 28.49 108.82 27.99 109.82 26.98L111.57 28.99C110.94 29.74 110.15 30.31 109.19 30.69Q107.75 31.27 105.94 31.27C104.41 31.27 103.05 30.96 101.88 30.35C100.71 29.74 99.81 28.9 99.16 27.81C98.53 26.71 98.22 25.47 98.22 24.1Q98.22 22.37 98.87 20.95L98.87 20.95Q98.99 20.69 99.13 20.43C99.76 19.33 100.63 18.47 101.73 17.86C102.83 17.25 104.07 16.95 105.44 16.95C106.81 16.95 108.02 17.25 109.08 17.86C110.17 18.46 111 19.3 111.6 20.4C112.21 21.49 112.51 22.74 112.51 24.17ZM122.07 31.27C120.62 31.27 119.32 30.96 118.17 30.35C117.02 29.74 116.12 28.9 115.47 27.81C114.83 26.71 114.5 25.47 114.5 24.1C114.5 22.72 114.83 21.49 115.47 20.4C116.12 19.32 117.01 18.47 118.14 17.86Q118.18 17.85 118.21 17.83Q118.22 17.83 118.23 17.82Q119.92 16.95 122.07 16.95C123.45 16.95 124.65 17.23 125.68 17.79Q126.53 18.24 127.14 18.9Q127.68 19.47 128.04 20.19L125.53 21.66C125.13 21.01 124.62 20.53 124.01 20.22Q123.74 20.07 123.46 19.97L123.46 19.97Q122.8 19.72 122.05 19.72Q120.9 19.72 120 20.19Q119.46 20.47 119.01 20.93C118.21 21.71 117.8 22.77 117.8 24.1C117.8 25.42 118.2 26.49 118.98 27.29C119.78 28.07 120.81 28.47 122.05 28.47C122.76 28.47 123.42 28.31 124.01 28C124.62 27.66 125.13 27.18 125.53 26.53L128.04 28C127.5 29.04 126.71 29.86 125.66 30.43C124.63 30.99 123.43 31.27 122.07 31.27ZM151.81 19.15Q152.08 18.73 152.42 18.39Q153.9 16.95 156.78 16.95L156.78 20.06C156.5 20.01 156.25 19.98 156.02 19.98C154.75 19.98 153.75 20.36 153.04 21.11C152.32 21.84 151.96 22.91 151.96 24.3L151.96 31.09L148.69 31.09L148.69 17.1L151.81 17.1L151.81 19.15ZM144.41 17.1L144.41 31.09L141.29 31.09L141.29 29.31C140.77 29.93 140.11 30.42 139.33 30.77C138.54 31.1 137.69 31.27 136.79 31.27C134.92 31.27 133.44 30.75 132.36 29.72C131.3 28.68 130.77 27.13 130.77 25.09L130.77 17.1L134.04 17.1L134.04 24.65C134.04 25.9 134.32 26.84 134.88 27.47Q135.02 27.63 135.19 27.76Q136.01 28.39 137.31 28.39C138.48 28.39 139.41 28.03 140.09 27.32Q140.12 27.28 140.15 27.25Q141.13 26.15 141.13 24.17L141.13 17.1L144.41 17.1ZM75.68 19.57Q74.63 19.57 73.8 19.98Q73.38 20.19 73.01 20.51C72.3 21.12 71.86 21.94 71.7 22.97L79.64 22.97Q79.5 21.99 79.01 21.25Q78.74 20.84 78.35 20.51C77.64 19.88 76.75 19.57 75.68 19.57ZM105.44 19.57Q104.4 19.57 103.56 19.98Q103.14 20.19 102.77 20.51C102.06 21.12 101.62 21.94 101.46 22.97L109.4 22.97C109.26 21.96 108.83 21.14 108.11 20.51C107.4 19.88 106.51 19.57 105.44 19.57ZM166.94 28.47C168.14 28.47 169.13 28.07 169.9 27.26C170.68 26.46 171.08 25.4 171.08 24.1C171.08 22.79 170.68 21.73 169.9 20.93C169.13 20.12 168.14 19.72 166.94 19.72Q166.03 19.72 165.25 20.05Q165.03 20.15 164.82 20.27C164.19 20.62 163.69 21.13 163.33 21.79C162.96 22.45 162.78 23.22 162.78 24.1C162.78 24.97 162.96 25.74 163.33 26.4C163.69 27.06 164.19 27.58 164.82 27.94C165.45 28.29 166.16 28.47 166.94 28.47Z" fill="#8896AB" fill-opacity="1.000000" fill-rule="evenodd"/>
</svg>
