<svg width="185.454590" height="43.636353" viewBox="0 0 185.455 43.6364" fill="none" xmlns="http://www.w3.org/2000/svg" xmlns:xlink="http://www.w3.org/1999/xlink">
	<desc>
			Created with Pixso.
	</desc>
	<defs>
		<clipPath id="clip9_475">
			<rect id="Frame" rx="-0.277056" width="34.354980" height="43.082253" transform="translate(0.277056 0.277056)" fill="white" fill-opacity="0"/>
		</clipPath>
	</defs>
	<rect id="Logo" rx="-0.500000" width="184.454544" height="42.636364" transform="translate(0.500000 0.500000)" fill="#FFFFFF" fill-opacity="0"/>
	<rect id="Frame" rx="-0.277056" width="34.354980" height="43.082253" transform="translate(0.277056 0.277056)" fill="#FFFFFF" fill-opacity="0"/>
	<g clip-path="url(#clip9_475)">
		<path id="Vector" d="M4.48 40.84L8.31 38.65L9.85 37.77L11.35 36.9L13.72 35.54L17.48 33.4L21.24 35.54L23.6 36.9L25.11 37.77L26.65 38.65L30.4 40.81L31.54 41.46L32.65 42.09L34.9 43.38L34.9 22.62L30.4 20.03L30.4 35.67L27.35 33.91L22.86 31.35L21.15 30.35L19.73 29.55L19.73 3.76L15.23 3.76L15.23 30.17L12.1 31.96L7.61 34.55L4.48 36.34L4.48 20.06L-0.01 22.63L-0.01 43.42L2.23 42.12L3.36 41.49L4.48 40.84ZM27.35 30.33L27.35 -0.9L22.85 -0.9L22.85 27.76L27.35 30.33ZM12.1 28.36L12.1 8.42L7.62 8.42L7.62 30.95L12.1 28.36Z" fill="#8896AB" fill-opacity="1.000000" fill-rule="evenodd"/>
	</g>
	<path id="WELYTICS" d="M167.04 18.71C166.51 14.31 163.18 11.78 158.77 11.78C153.74 11.78 149.9 15.34 149.9 21.57C149.9 27.78 153.67 31.35 158.77 31.35C163.65 31.35 166.6 28.1 167.04 24.6L162.96 24.58C162.58 26.61 160.98 27.79 158.84 27.79C155.94 27.79 153.98 25.64 153.98 21.57C153.98 17.6 155.92 15.35 158.86 15.35C161.07 15.35 162.66 16.62 162.96 18.71L167.04 18.71ZM180.25 17.52L184.11 17.52C184.06 14.13 181.27 11.78 177.03 11.78C172.86 11.78 169.81 14.08 169.81 17.52L169.81 17.55L169.81 17.57C169.81 20.36 171.79 21.97 175 22.74L177.07 23.26C179.15 23.76 180.3 24.35 180.31 25.64C180.3 27.03 178.98 27.98 176.93 27.98C174.84 27.98 173.34 27.01 173.21 25.11L169.31 25.11C169.41 29.23 172.36 31.36 176.98 31.36C181.63 31.36 184.36 29.13 184.37 25.65C184.36 22.48 181.97 20.79 178.66 20.05L176.95 19.64C175.31 19.26 173.94 18.66 173.94 17.32C173.94 17.31 173.94 17.29 173.94 17.28C173.94 16.05 175.03 15.15 177 15.15C178.92 15.15 180.1 16.02 180.25 17.52ZM53.94 31.09L57.86 31.09L61.48 18.64L61.63 18.64L65.25 31.09L69.17 31.09L74.62 12.04L70.23 12.04L67.07 25.3L66.91 25.3L63.44 12.04L59.67 12.04L56.2 25.28L56.04 25.28L52.89 12.04L48.49 12.04L53.94 31.09ZM76.78 31.09L89.65 31.09L89.65 27.77L80.8 27.77L80.8 23.22L88.95 23.22L88.95 19.9L80.8 19.9L80.8 15.36L89.61 15.36L89.61 12.04L76.78 12.04L76.78 31.09ZM92.81 31.09L105 31.09L105 27.77L96.83 27.77L96.83 12.04L92.81 12.04L92.81 31.09ZM104.12 12.04L111.07 24.35L111.07 31.09L115.06 31.09L115.06 24.35L122.01 12.04L117.5 12.04L113.16 20.25L112.97 20.25L108.63 12.04L104.12 12.04ZM124.68 15.36L130.51 15.36L130.51 31.09L134.49 31.09L134.49 15.36L140.32 15.36L140.32 12.04L124.68 12.04L124.68 15.36ZM146.92 12.04L142.9 12.04L142.9 31.09L146.92 31.09L146.92 12.04Z" fill="#8896AB" fill-opacity="1.000000" fill-rule="evenodd"/>
</svg>
