<svg width="154.076294" height="43.636353" viewBox="0 0 154.076 43.6364" fill="none" xmlns="http://www.w3.org/2000/svg" xmlns:xlink="http://www.w3.org/1999/xlink">
	<desc>
			Created with Pixso.
	</desc>
	<defs>
		<clipPath id="clip9_490">
			<rect id="1" rx="-0.073403" width="39.095680" height="43.489559" transform="translate(0.073403 0.073403)" fill="white" fill-opacity="0"/>
		</clipPath>
	</defs>
	<rect id="Logo" rx="-0.500000" width="153.076324" height="42.636364" transform="translate(0.500000 0.500000)" fill="#FFFFFF" fill-opacity="0"/>
	<path id="symtric" d="M52.48 14.54C52.48 22.4 60.92 23.46 60.92 29.11C60.92 31.08 60.06 31.78 58.68 31.78C57.31 31.78 56.44 31.08 56.44 29.11L56.44 27.15L52.36 27.15L52.36 28.84C52.36 33.24 54.56 35.75 58.8 35.75C63.04 35.75 65.24 33.24 65.24 28.84C65.24 20.98 56.8 19.92 56.8 14.27C56.8 12.3 57.58 11.56 58.96 11.56C60.33 11.56 61.12 12.3 61.12 14.27L61.12 15.41L65.2 15.41L65.2 14.54C65.2 10.14 63.04 7.63 58.84 7.63C54.64 7.63 52.48 10.14 52.48 14.54ZM149.99 25.19L149.99 29.11C149.99 31.08 149.12 31.78 147.75 31.78C146.37 31.78 145.51 31.08 145.51 29.11L145.51 14.27C145.51 12.3 146.37 11.56 147.75 11.56C149.12 11.56 149.99 12.3 149.99 14.27L149.99 17.21L154.07 17.21L154.07 14.54C154.07 10.14 151.87 7.63 147.63 7.63C143.39 7.63 141.19 10.14 141.19 14.54L141.19 28.84C141.19 33.24 143.39 35.75 147.63 35.75C151.87 35.75 154.07 33.24 154.07 28.84L154.07 25.19L149.99 25.19ZM71.49 35.44L75.81 35.44L75.81 26.33L81.27 7.95L77.15 7.95L73.85 20.47L70.55 7.95L66.03 7.95L71.49 26.33L71.49 35.44ZM88.99 7.95L82.98 7.95L82.98 35.44L86.75 35.44L86.75 16L89.97 35.44L94.05 35.44L97.04 15.72L97.04 35.44L101.12 35.44L101.12 7.95L95.11 7.95L92.17 27.46L88.99 7.95ZM103.01 11.87L107.53 11.87L107.53 35.44L111.85 35.44L111.85 11.87L116.36 11.87L116.36 7.95L103.01 7.95L103.01 11.87ZM131.7 35.44C131.26 34.42 131.22 33.43 131.22 32.1L131.22 27.86C131.22 24.99 130.52 22.91 128.36 22.01C130.28 21.1 131.18 19.26 131.18 16.43L131.18 14.27C131.18 10.03 129.26 7.95 124.78 7.95L118.26 7.95L118.26 35.44L122.58 35.44L122.58 24.24L124.08 24.24C126.04 24.24 126.9 25.19 126.9 27.74L126.9 32.06C126.9 34.3 127.06 34.73 127.3 35.44L131.7 35.44ZM134.07 35.44L138.39 35.44L138.39 7.95L134.07 7.95L134.07 35.44ZM124.67 11.87C126.2 11.87 126.86 12.74 126.86 14.7L126.86 17.41C126.86 19.61 125.88 20.32 124.27 20.32L122.58 20.32L122.58 11.87L124.67 11.87Z" fill="#8896AB" fill-opacity="1.000000" fill-rule="evenodd"/>
	<rect id="1" rx="-0.073403" width="39.095680" height="43.489559" transform="translate(0.073403 0.073403)" fill="#7F46F0" fill-opacity="0"/>
	<g clip-path="url(#clip9_490)">
		<path id="Vector" d="M14.84 13.83L12.48 17.91L10.23 14.01L12.58 9.93L28.99 9.93L32.47 3.89L9.09 3.89L4.49 11.88C7.94 17.85 11.39 23.82 14.84 29.79L21.81 29.79C20.06 26.76 18.31 23.73 16.56 20.71L16.07 19.87L32.04 19.87L38.91 31.76L32.04 43.63L6.85 43.63L0.05 31.64L3.46 25.72L5.72 29.61L4.5 31.74L9.11 39.74L29.78 39.74L34.4 31.74L29.8 23.75L22.83 23.75C24.31 26.33 25.79 28.9 27.27 31.47L27.43 31.74L26.31 33.69L12.59 33.69C8.44 26.51 4.29 19.33 0.15 12.16L0 11.88L6.85 -0.01L39.24 -0.01L31.25 13.83L14.84 13.83Z" fill="#8896AB" fill-opacity="1.000000" fill-rule="evenodd"/>
	</g>
</svg>
