<svg width="24.000000" height="24.000000" viewBox="0 0 24 24" fill="none" xmlns="http://www.w3.org/2000/svg" xmlns:xlink="http://www.w3.org/1999/xlink">
	<desc>
			Created with Pixso.
	</desc>
	<defs>
		<clipPath id="clip2454_16677">
			<rect id="open mail / 24 / Outline" rx="-0.500000" width="23.000000" height="23.000000" transform="translate(0.500000 0.500000)" fill="white" fill-opacity="0"/>
		</clipPath>
	</defs>
	<rect id="open mail / 24 / Outline" rx="-0.500000" width="23.000000" height="23.000000" transform="translate(0.500000 0.500000)" fill="#FFFFFF" fill-opacity="0"/>
	<g clip-path="url(#clip2454_16677)">
		<path id="Vector" d="M20.2 8.81L14 2.77C13.47 2.27 12.77 2 12.05 2C11.32 2 10.62 2.27 10.1 2.77L3.89 8.77C3.61 9.02 3.39 9.31 3.23 9.64C3.08 9.98 3 10.34 3 10.71L3 19.29C3.01 20.01 3.3 20.71 3.83 21.21C4.35 21.72 5.05 22 5.78 22L18.21 22C18.94 22 19.64 21.72 20.16 21.21C20.69 20.71 20.98 20.01 21 19.29L21 10.71C20.99 10.35 20.92 10.01 20.79 9.68C20.65 9.36 20.45 9.06 20.2 8.81ZM11.43 4.22C11.59 4.08 11.79 4 12 4C12.2 4 12.4 4.08 12.56 4.22L18 9.5L12.53 14.77C12.37 14.91 12.17 14.99 11.97 14.99C11.76 14.99 11.56 14.91 11.41 14.77L6 9.5L11.43 4.22ZM19 19.29C18.98 19.48 18.89 19.66 18.75 19.8C18.6 19.93 18.41 20 18.21 20L5.78 20C5.58 20 5.39 19.93 5.24 19.8C5.1 19.66 5.01 19.48 5 19.29L5 11.35L9.05 15.25L7.39 16.85C7.2 17.03 7.09 17.29 7.09 17.55C7.09 17.81 7.2 18.07 7.39 18.26C7.48 18.35 7.59 18.43 7.71 18.48C7.84 18.54 7.97 18.56 8.1 18.56C8.36 18.56 8.61 18.46 8.8 18.29L10.56 16.58C11 16.85 11.51 17 12.03 17C12.54 17 13.05 16.85 13.49 16.58L15.26 18.29C15.44 18.46 15.69 18.56 15.95 18.56C16.08 18.56 16.21 18.54 16.34 18.48C16.46 18.43 16.57 18.35 16.67 18.26C16.85 18.07 16.96 17.81 16.96 17.55C16.96 17.29 16.85 17.03 16.67 16.85L15 15.25L19 11.35L19 19.29Z" fill="#F0FDF4" fill-opacity="1.000000" fill-rule="nonzero"/>
	</g>
</svg>
