<svg width="19.987671" height="19.927246" viewBox="0 0 19.9877 19.9272" fill="none" xmlns="http://www.w3.org/2000/svg" xmlns:xlink="http://www.w3.org/1999/xlink">
	<desc>
			Created with Pixso.
	</desc>
	<defs/>
	<path id="Vector" d="M17.4 11C17.18 11 16.95 10.93 16.73 10.87C16.29 10.78 15.85 10.65 15.42 10.49C14.96 10.32 14.45 10.33 13.99 10.51C13.53 10.69 13.16 11.04 12.94 11.49L12.72 11.95C11.75 11.39 10.85 10.72 10.05 9.95C9.28 9.14 8.6 8.25 8.05 7.27L8.51 7.06C8.96 6.85 9.3 6.47 9.49 6.02C9.67 5.56 9.68 5.05 9.51 4.58C9.35 4.15 9.22 3.71 9.12 3.27C9.07 3.04 9.03 2.81 9 2.6C8.88 1.89 8.51 1.25 7.96 0.8C7.41 0.34 6.72 0.09 6 0.1L2.99 0.1C2.57 0.1 2.15 0.19 1.77 0.37C1.38 0.54 1.03 0.79 0.75 1.1C0.47 1.43 0.25 1.81 0.12 2.22C0 2.64 -0.04 3.08 0.02 3.5C0.57 7.67 2.47 11.53 5.43 14.5C8.4 17.47 12.27 19.37 16.43 19.91C16.56 19.92 16.69 19.92 16.82 19.91C17.56 19.92 18.27 19.65 18.82 19.16C19.14 18.87 19.39 18.53 19.56 18.14C19.73 17.76 19.82 17.34 19.82 16.91L19.82 13.91C19.82 13.22 19.57 12.56 19.13 12.02C18.69 11.49 18.08 11.13 17.4 11ZM17.89 17C17.89 17.13 17.86 17.27 17.81 17.4C17.75 17.53 17.67 17.64 17.56 17.74C17.45 17.83 17.32 17.91 17.18 17.95C17.04 18 16.89 18.01 16.74 17.99C13.01 17.5 9.54 15.8 6.87 13.14C4.2 10.47 2.48 6.99 1.99 3.25C1.97 3.1 1.98 2.95 2.03 2.81C2.07 2.66 2.14 2.53 2.24 2.43C2.34 2.32 2.45 2.24 2.58 2.18C2.71 2.12 2.85 2.09 2.99 2.1L5.99 2.1C6.22 2.09 6.45 2.16 6.63 2.31C6.81 2.45 6.94 2.65 6.99 2.87C6.99 3.14 7.08 3.43 7.14 3.7C7.26 4.22 7.41 4.73 7.6 5.24L6.2 5.89C5.96 6.01 5.78 6.21 5.68 6.45C5.58 6.7 5.58 6.97 5.68 7.22C7.12 10.3 9.6 12.78 12.68 14.22C12.93 14.31 13.2 14.31 13.44 14.22C13.69 14.12 13.89 13.94 14 13.7L14.63 12.29C15.15 12.48 15.68 12.64 16.21 12.75C16.47 12.81 16.75 12.87 17.02 12.91C17.25 12.96 17.45 13.08 17.59 13.27C17.73 13.45 17.81 13.67 17.8 13.91L17.89 17ZM11.99 0C11.76 0 11.52 0 11.29 0C11.03 0.02 10.78 0.14 10.61 0.35C10.44 0.55 10.36 0.81 10.38 1.08C10.4 1.35 10.53 1.59 10.73 1.76C10.93 1.93 11.2 2.02 11.46 2L11.99 2C13.58 2 15.11 2.63 16.24 3.75C17.36 4.88 17.99 6.4 17.99 8C17.99 8.18 17.99 8.35 17.99 8.52C17.97 8.79 18.05 9.05 18.22 9.25C18.4 9.46 18.64 9.58 18.9 9.6L18.98 9.6C19.23 9.61 19.47 9.51 19.66 9.34C19.85 9.18 19.96 8.94 19.98 8.7C19.98 8.47 19.98 8.22 19.98 8C19.98 5.87 19.14 3.84 17.64 2.34C16.15 0.84 14.11 0 11.99 0ZM13.99 8C13.99 8.26 14.1 8.51 14.29 8.7C14.47 8.89 14.73 9 14.99 9C15.26 9 15.51 8.89 15.7 8.7C15.89 8.51 15.99 8.26 15.99 8C15.99 6.93 15.57 5.92 14.82 5.17C14.07 4.42 13.05 4 11.99 4C11.73 4 11.47 4.1 11.29 4.29C11.1 4.48 10.99 4.73 10.99 5C10.99 5.26 11.1 5.51 11.29 5.7C11.47 5.89 11.73 6 11.99 6C12.52 6 13.03 6.21 13.41 6.58C13.78 6.96 13.99 7.46 13.99 8Z" fill="#F0FDF4" fill-opacity="1.000000" fill-rule="nonzero"/>
</svg>
