<svg width="20.000000" height="20.000000" viewBox="0 0 20 20" fill="none" xmlns="http://www.w3.org/2000/svg" xmlns:xlink="http://www.w3.org/1999/xlink">
	<desc>
			Created with Pixso.
	</desc>
	<defs/>
	<path id="Vector" d="M19 0L1 0C0.73 0 0.48 0.1 0.29 0.29C0.1 0.48 0 0.73 0 1L0 19C0 19.26 0.1 19.51 0.29 19.7C0.48 19.89 0.73 20 1 20L19 20C19.26 20 19.51 19.89 19.7 19.7C19.89 19.51 20 19.26 20 19L20 1C20 0.73 19.89 0.48 19.7 0.29C19.51 0.1 19.26 0 19 0ZM6 18L2 18L2 14L6 14L6 18ZM6 12L2 12L2 8L6 8L6 12ZM6 6L2 6L2 2L6 2L6 6ZM12 18L8 18L8 14L12 14L12 18ZM12 12L8 12L8 8L12 8L12 12ZM12 6L8 6L8 2L12 2L12 6ZM18 18L14 18L14 14L18 14L18 18ZM18 12L14 12L14 8L18 8L18 12ZM18 6L14 6L14 2L18 2L18 6Z" fill="#F0FDF4" fill-opacity="1.000000" fill-rule="nonzero"/>
</svg>
