<svg width="16.006958" height="18.167969" viewBox="0 0 16.007 18.168" fill="none" xmlns="http://www.w3.org/2000/svg" xmlns:xlink="http://www.w3.org/1999/xlink">
	<desc>
			Created with Pixso.
	</desc>
	<defs/>
	<path id="Vector" d="M15.5 8.21L1.5 0.13C1.34 0.04 1.17 0 1 0C0.82 0 0.65 0.04 0.5 0.13C0.34 0.22 0.22 0.34 0.13 0.5C0.04 0.65 -0.01 0.82 0 1L0 17.16C-0.01 17.34 0.04 17.51 0.13 17.66C0.22 17.81 0.34 17.94 0.5 18.03C0.65 18.12 0.82 18.16 1 18.16C1.17 18.16 1.34 18.12 1.5 18.03L15.5 9.95C15.65 9.86 15.78 9.74 15.87 9.58C15.96 9.43 16 9.26 16 9.08C16 8.9 15.96 8.73 15.87 8.58C15.78 8.42 15.65 8.3 15.5 8.21ZM2 15.43L2 2.73L13 9.08L2 15.43Z" fill="#FFFFFF" fill-opacity="1.000000" fill-rule="nonzero"/>
</svg>
