<svg width="20.000000" height="20.000000" viewBox="0 0 20 20" fill="none" xmlns="http://www.w3.org/2000/svg" xmlns:xlink="http://www.w3.org/1999/xlink">
	<desc>
			Created with Pixso.
	</desc>
	<defs/>
	<path id="Vector" d="M8 11L1 11C0.73 11 0.48 11.1 0.29 11.29C0.1 11.48 0 11.73 0 12L0 19C0 19.26 0.1 19.51 0.29 19.7C0.48 19.89 0.73 20 1 20L8 20C8.26 20 8.51 19.89 8.7 19.7C8.89 19.51 9 19.26 9 19L9 12C9 11.73 8.89 11.48 8.7 11.29C8.51 11.1 8.26 11 8 11ZM7 18L2 18L2 13L7 13L7 18ZM19 0L12 0C11.73 0 11.48 0.1 11.29 0.29C11.1 0.48 11 0.73 11 1L11 8C11 8.26 11.1 8.51 11.29 8.7C11.48 8.89 11.73 9 12 9L19 9C19.26 9 19.51 8.89 19.7 8.7C19.89 8.51 20 8.26 20 8L20 1C20 0.73 19.89 0.48 19.7 0.29C19.51 0.1 19.26 0 19 0ZM18 7L13 7L13 2L18 2L18 7ZM19 11L12 11C11.73 11 11.48 11.1 11.29 11.29C11.1 11.48 11 11.73 11 12L11 19C11 19.26 11.1 19.51 11.29 19.7C11.48 19.89 11.73 20 12 20L19 20C19.26 20 19.51 19.89 19.7 19.7C19.89 19.51 20 19.26 20 19L20 12C20 11.73 19.89 11.48 19.7 11.29C19.51 11.1 19.26 11 19 11ZM18 18L13 18L13 13L18 13L18 18ZM8 0L1 0C0.73 0 0.48 0.1 0.29 0.29C0.1 0.48 0 0.73 0 1L0 8C0 8.26 0.1 8.51 0.29 8.7C0.48 8.89 0.73 9 1 9L8 9C8.26 9 8.51 8.89 8.7 8.7C8.89 8.51 9 8.26 9 8L9 1C9 0.73 8.89 0.48 8.7 0.29C8.51 0.1 8.26 0 8 0ZM7 7L2 7L2 2L7 2L7 7Z" fill="#FFFFFF" fill-opacity="1.000000" fill-rule="nonzero"/>
</svg>
