<svg width="20.000000" height="20.000000" viewBox="0 0 20 20" fill="none" xmlns="http://www.w3.org/2000/svg" xmlns:xlink="http://www.w3.org/1999/xlink">
	<desc>
			Created with Pixso.
	</desc>
	<defs/>
	<path id="Vector" d="M19.31 7.55L17.43 6.92L18.31 5.14C18.41 4.95 18.44 4.74 18.4 4.53C18.37 4.33 18.27 4.14 18.12 4L16 1.87C15.85 1.72 15.66 1.62 15.45 1.59C15.24 1.55 15.03 1.58 14.85 1.68L13.06 2.56L12.43 0.68C12.37 0.48 12.24 0.31 12.07 0.18C11.91 0.06 11.7 0 11.5 0L8.5 0C8.29 -0.01 8.08 0.06 7.91 0.18C7.74 0.3 7.61 0.48 7.55 0.68L6.92 2.56L5.14 1.68C4.95 1.58 4.74 1.55 4.53 1.59C4.33 1.62 4.14 1.72 4 1.87L1.87 4C1.72 4.14 1.62 4.33 1.59 4.54C1.55 4.75 1.58 4.96 1.68 5.15L2.56 6.93L0.68 7.56C0.48 7.62 0.31 7.75 0.18 7.92C0.06 8.08 0 8.29 0 8.5L0 11.5C-0.01 11.7 0.06 11.91 0.18 12.08C0.3 12.25 0.48 12.38 0.68 12.45L2.56 13.08L1.68 14.86C1.58 15.04 1.55 15.25 1.59 15.46C1.62 15.66 1.72 15.85 1.87 16L4 18.12C4.14 18.27 4.33 18.37 4.54 18.4C4.75 18.44 4.96 18.41 5.15 18.31L6.93 17.43L7.56 19.31C7.62 19.51 7.75 19.69 7.92 19.81C8.09 19.93 8.3 20 8.51 20L11.51 20C11.71 20 11.92 19.93 12.09 19.81C12.26 19.69 12.39 19.51 12.46 19.31L13.09 17.43L14.87 18.31C15.05 18.4 15.26 18.43 15.46 18.4C15.66 18.36 15.85 18.27 16 18.12L18.12 16C18.27 15.85 18.37 15.66 18.4 15.45C18.44 15.24 18.41 15.03 18.31 14.85L17.43 13.06L19.31 12.43C19.51 12.37 19.68 12.24 19.81 12.07C19.93 11.91 19.99 11.7 20 11.5L20 8.5C20 8.29 19.93 8.08 19.81 7.91C19.69 7.74 19.51 7.61 19.31 7.55ZM18 10.78L16.79 11.18C16.52 11.26 16.27 11.41 16.05 11.61C15.84 11.81 15.67 12.05 15.56 12.32C15.45 12.58 15.4 12.87 15.41 13.16C15.43 13.45 15.5 13.74 15.64 14L16.2 15.14L15.11 16.24L14 15.64C13.74 15.51 13.46 15.44 13.17 15.43C12.89 15.42 12.6 15.47 12.34 15.58C12.07 15.69 11.83 15.85 11.64 16.06C11.44 16.27 11.3 16.52 11.21 16.79L10.81 18L9.21 18L8.81 16.79C8.73 16.52 8.58 16.27 8.38 16.05C8.18 15.84 7.94 15.67 7.67 15.56C7.41 15.45 7.12 15.4 6.83 15.41C6.54 15.43 6.25 15.5 6 15.64L4.85 16.2L3.76 15.11L4.35 14C4.49 13.74 4.56 13.45 4.58 13.16C4.59 12.87 4.54 12.58 4.43 12.32C4.32 12.05 4.15 11.81 3.94 11.61C3.72 11.41 3.47 11.26 3.19 11.18L2 10.78L2 9.21L3.19 8.81C3.47 8.73 3.72 8.58 3.94 8.38C4.15 8.18 4.32 7.94 4.43 7.67C4.54 7.41 4.59 7.12 4.58 6.83C4.56 6.54 4.49 6.25 4.35 6L3.79 4.89L4.89 3.79L6 4.35C6.25 4.49 6.54 4.56 6.83 4.58C7.12 4.59 7.41 4.54 7.67 4.43C7.94 4.32 8.18 4.15 8.38 3.94C8.58 3.72 8.73 3.47 8.81 3.19L9.21 2L10.78 2L11.18 3.19C11.26 3.47 11.41 3.72 11.61 3.94C11.81 4.15 12.05 4.32 12.32 4.43C12.58 4.54 12.87 4.59 13.16 4.58C13.45 4.56 13.74 4.49 14 4.35L15.14 3.79L16.24 4.89L15.64 6C15.51 6.25 15.44 6.53 15.43 6.82C15.42 7.1 15.47 7.39 15.58 7.65C15.69 7.92 15.85 8.16 16.06 8.35C16.27 8.55 16.52 8.69 16.79 8.79L18 9.18L18 10.78ZM10 6C9.2 6 8.43 6.23 7.77 6.67C7.11 7.11 6.6 7.73 6.3 8.46C6 9.2 5.92 10 6.07 10.78C6.23 11.55 6.61 12.26 7.17 12.82C7.73 13.38 8.44 13.76 9.21 13.92C9.99 14.07 10.79 13.99 11.53 13.69C12.26 13.39 12.88 12.88 13.32 12.22C13.76 11.56 14 10.79 14 10C14 8.93 13.57 7.92 12.82 7.17C12.07 6.42 11.06 6 10 6ZM10 12C9.6 12 9.21 11.88 8.88 11.66C8.55 11.44 8.3 11.13 8.15 10.76C8 10.39 7.96 9.99 8.03 9.6C8.11 9.22 8.3 8.86 8.58 8.58C8.86 8.3 9.22 8.11 9.6 8.03C9.99 7.96 10.39 8 10.76 8.15C11.13 8.3 11.44 8.55 11.66 8.88C11.88 9.21 12 9.6 12 10C12 10.53 11.78 11.03 11.41 11.41C11.03 11.78 10.53 12 10 12Z" fill="#FFFFFF" fill-opacity="1.000000" fill-rule="nonzero"/>
</svg>
