<svg width="21.970093" height="17.000000" viewBox="0 0 21.9701 17" fill="none" xmlns="http://www.w3.org/2000/svg" xmlns:xlink="http://www.w3.org/1999/xlink">
	<desc>
			Created with Pixso.
	</desc>
	<defs/>
	<path id="Vector" d="M11.3 8.71C11.83 8.25 12.26 7.68 12.55 7.04C12.84 6.4 13 5.7 13 5C13 3.67 12.47 2.4 11.53 1.46C10.59 0.52 9.32 0 8 0C6.67 0 5.4 0.52 4.46 1.46C3.52 2.4 3 3.67 3 5C3 5.7 3.15 6.4 3.44 7.04C3.73 7.68 4.16 8.25 4.69 8.71C3.3 9.35 2.11 10.37 1.27 11.66C0.44 12.95 0 14.46 0 16C0 16.26 0.1 16.51 0.29 16.7C0.48 16.89 0.73 17 1 17C1.26 17 1.51 16.89 1.7 16.7C1.89 16.51 2 16.26 2 16C2 14.4 2.63 12.88 3.75 11.75C4.88 10.63 6.4 10 8 10C9.59 10 11.11 10.63 12.24 11.75C13.36 12.88 14 14.4 14 16C14 16.26 14.1 16.51 14.29 16.7C14.48 16.89 14.73 17 15 17C15.26 17 15.51 16.89 15.7 16.7C15.89 16.51 16 16.26 16 16C15.99 14.46 15.55 12.95 14.72 11.66C13.88 10.37 12.69 9.35 11.3 8.71ZM8 8C7.4 8 6.82 7.82 6.33 7.49C5.83 7.16 5.45 6.69 5.22 6.14C5 5.59 4.94 4.99 5.05 4.41C5.17 3.83 5.45 3.29 5.87 2.87C6.29 2.45 6.83 2.17 7.41 2.05C7.99 1.94 8.59 2 9.14 2.22C9.69 2.45 10.16 2.83 10.49 3.33C10.82 3.82 11 4.4 11 5C11 5.79 10.68 6.55 10.12 7.12C9.55 7.68 8.79 8 8 8ZM17.74 8.32C18.37 7.59 18.79 6.7 18.94 5.75C19.08 4.8 18.95 3.82 18.56 2.95C18.16 2.07 17.52 1.32 16.71 0.8C15.9 0.27 14.96 -0.01 14 0C13.73 0 13.48 0.1 13.29 0.29C13.1 0.48 13 0.73 13 1C13 1.26 13.1 1.51 13.29 1.7C13.48 1.89 13.73 2 14 2C14.79 2 15.55 2.31 16.12 2.87C16.68 3.44 17 4.2 17 5C16.99 5.52 16.85 6.04 16.59 6.49C16.33 6.94 15.95 7.32 15.5 7.59C15.35 7.67 15.22 7.79 15.14 7.94C15.05 8.09 15 8.25 15 8.42C14.99 8.59 15.03 8.76 15.11 8.91C15.19 9.06 15.3 9.19 15.45 9.28L15.84 9.54L15.97 9.62C17.17 10.19 18.19 11.09 18.9 12.22C19.6 13.35 19.98 14.66 19.96 16C19.96 16.26 20.07 16.51 20.26 16.7C20.45 16.89 20.7 17 20.97 17C21.23 17 21.48 16.89 21.67 16.7C21.86 16.51 21.97 16.26 21.97 16C21.97 14.46 21.59 12.95 20.85 11.61C20.11 10.26 19.04 9.13 17.74 8.32Z" fill="#FFFFFF" fill-opacity="1.000000" fill-rule="nonzero"/>
</svg>
