<svg width="24.000000" height="20.000000" viewBox="0 0 24 20" fill="none" xmlns="http://www.w3.org/2000/svg" xmlns:xlink="http://www.w3.org/1999/xlink">
	<desc>
			Created with Pixso.
	</desc>
	<defs/>
	<path id="Vector" d="M17 18L5 18C4.2 18 3.44 17.68 2.87 17.12C2.31 16.55 2 15.79 2 15L2 7C2 6.73 1.89 6.48 1.7 6.29C1.51 6.1 1.26 6 1 6C0.73 6 0.48 6.1 0.29 6.29C0.1 6.48 0 6.73 0 7L0 15C0 16.32 0.52 17.59 1.46 18.53C2.4 19.47 3.67 20 5 20L17 20C17.26 20 17.51 19.89 17.7 19.7C17.89 19.51 18 19.26 18 19C18 18.73 17.89 18.48 17.7 18.29C17.51 18.1 17.26 18 17 18ZM21 0L7 0C6.2 0 5.44 0.31 4.87 0.87C4.31 1.44 4 2.2 4 3L4 13C4 13.79 4.31 14.55 4.87 15.12C5.44 15.68 6.2 16 7 16L21 16C21.79 16 22.55 15.68 23.12 15.12C23.68 14.55 24 13.79 24 13L24 3C24 2.2 23.68 1.44 23.12 0.87C22.55 0.31 21.79 0 21 0ZM20.59 2L14.71 7.88C14.61 7.97 14.5 8.04 14.38 8.09C14.26 8.14 14.13 8.17 14 8.17C13.86 8.17 13.73 8.14 13.61 8.09C13.49 8.04 13.38 7.97 13.29 7.88L7.41 2L20.59 2ZM22 13C22 13.26 21.89 13.51 21.7 13.7C21.51 13.89 21.26 14 21 14L7 14C6.73 14 6.48 13.89 6.29 13.7C6.1 13.51 6 13.26 6 13L6 3.37L11.88 9.25C12.44 9.81 13.2 10.12 14 10.12C14.79 10.12 15.55 9.81 16.12 9.25L22 3.37L22 13Z" fill="#FFFFFF" fill-opacity="1.000000" fill-rule="nonzero"/>
</svg>
