<svg width="20.011597" height="10.011597" viewBox="0 0 20.0116 10.0116" fill="none" xmlns="http://www.w3.org/2000/svg" xmlns:xlink="http://www.w3.org/1999/xlink">
	<desc>
			Created with Pixso.
	</desc>
	<defs/>
	<path id="Vector" d="M19.71 0.29C19.62 0.2 19.51 0.12 19.39 0.07C19.26 0.02 19.13 0 19 0C18.87 0 18.74 0.02 18.62 0.07C18.49 0.12 18.38 0.2 18.29 0.29L12 6.59L7.71 2.29C7.62 2.2 7.51 2.12 7.39 2.07C7.26 2.02 7.13 2 7 2C6.87 2 6.74 2.02 6.62 2.07C6.49 2.12 6.38 2.2 6.29 2.29L0.29 8.29C0.2 8.38 0.12 8.49 0.07 8.62C0.02 8.74 0 8.87 0 9C0 9.13 0.02 9.26 0.07 9.39C0.12 9.51 0.2 9.62 0.29 9.71C0.38 9.8 0.49 9.88 0.62 9.93C0.74 9.98 0.87 10.01 1 10.01C1.13 10.01 1.26 9.98 1.39 9.93C1.51 9.88 1.62 9.8 1.71 9.71L7 4.41L11.29 8.71C11.38 8.8 11.49 8.88 11.62 8.93C11.74 8.98 11.87 9.01 12 9.01C12.13 9.01 12.26 8.98 12.39 8.93C12.51 8.88 12.62 8.8 12.71 8.71L19.71 1.71C19.8 1.62 19.88 1.51 19.93 1.39C19.98 1.26 20.01 1.13 20.01 1C20.01 0.87 19.98 0.74 19.93 0.62C19.88 0.49 19.8 0.38 19.71 0.29Z" fill="#FFFFFF" fill-opacity="1.000000" fill-rule="nonzero"/>
</svg>
