<svg width="20.000000" height="20.005859" viewBox="0 0 20 20.0059" fill="none" xmlns="http://www.w3.org/2000/svg" xmlns:xlink="http://www.w3.org/1999/xlink">
	<desc>
			Created with Pixso.
	</desc>
	<defs/>
	<path id="Vector" d="M3 16L7.23 16C7.37 16 7.5 15.98 7.62 15.93C7.74 15.88 7.85 15.8 7.94 15.71L14.87 8.78L17.7 6C17.8 5.91 17.87 5.8 17.92 5.68C17.97 5.55 18 5.42 18 5.29C18 5.16 17.97 5.03 17.92 4.91C17.87 4.78 17.8 4.67 17.7 4.58L13.47 0.29C13.37 0.2 13.26 0.12 13.14 0.07C13.02 0.02 12.89 0 12.76 0C12.62 0 12.49 0.02 12.37 0.07C12.25 0.12 12.14 0.2 12.05 0.29L9.22 3.12L2.29 10.05C2.19 10.14 2.12 10.26 2.07 10.38C2.02 10.5 1.99 10.63 2 10.76L2 15C2 15.27 2.1 15.52 2.29 15.71C2.48 15.9 2.73 16 3 16ZM12.76 2.41L15.59 5.24L14.17 6.66L11.34 3.83L12.76 2.41ZM4 11.17L9.93 5.24L12.76 8.07L6.82 14L4 14L4 11.17ZM19 18L1 18C0.73 18 0.48 18.11 0.29 18.29C0.1 18.48 0 18.74 0 19C0 19.27 0.1 19.52 0.29 19.71C0.48 19.9 0.73 20 1 20L19 20C19.26 20 19.51 19.9 19.7 19.71C19.89 19.52 20 19.27 20 19C20 18.74 19.89 18.48 19.7 18.29C19.51 18.11 19.26 18 19 18Z" fill="#FFFFFF" fill-opacity="1.000000" fill-rule="nonzero"/>
</svg>
